<?xml version="1.0" encoding="utf-8"?>
<!-- Generator: Adobe Illustrator 16.0.0, SVG Export Plug-In . SVG Version: 6.00 Build 0)  -->
<!DOCTYPE svg PUBLIC "-//W3C//DTD SVG 1.1//EN" "http://www.w3.org/Graphics/SVG/1.1/DTD/svg11.dtd">
<svg version="1.1" id="Layer_1" xmlns="http://www.w3.org/2000/svg" xmlns:xlink="http://www.w3.org/1999/xlink" x="0px" y="0px"
	 width="251.65px" height="97.578px" viewBox="0 0 251.65 97.578" enable-background="new 0 0 251.65 97.578" xml:space="preserve">
<g>
	<g>
		<g>
			<path fill="#EA2227" d="M65.999,2.053c0,0-29.236,2.294-36.254,1.896c-7.014-0.4-4.877,4.083-3.321,6.229
				c1.558,2.147,6.034,5.078,6.034,5.078L65.999,2.053z"/>
		</g>
		<defs>
			<filter id="Adobe_OpacityMaskFilter" filterUnits="userSpaceOnUse" x="24.855" y="2.053" width="41.144" height="13.202">
				<feColorMatrix  type="matrix" values="1 0 0 0 0  0 1 0 0 0  0 0 1 0 0  0 0 0 1 0"/>
			</filter>
		</defs>
		<mask maskUnits="userSpaceOnUse" x="24.855" y="2.053" width="41.144" height="13.202" id="SVGID_1_">
			<g filter="url(#Adobe_OpacityMaskFilter)">
			</g>
		</mask>
		<g opacity="0.13" mask="url(#SVGID_1_)">
			<path d="M65.999,2.053c0,0-29.236,2.294-36.254,1.896c-7.014-0.4-4.877,4.083-3.321,6.229c1.558,2.147,6.034,5.078,6.034,5.078
				L65.999,2.053z"/>
		</g>
	</g>
	<path fill="#404041" d="M64.539,2.118c0,0-18.854,2.328-32.801,12.617l0.462,0.379L66.602,2.078L64.539,2.118z"/>
	
		<linearGradient id="SVGID_2_" gradientUnits="userSpaceOnUse" x1="235.3611" y1="77.4561" x2="211.5583" y2="77.4561" gradientTransform="matrix(-1 -0.0015 0.0015 -1 240.6325 121.9427)">
		<stop  offset="0" style="stop-color:#6D6E70"/>
		<stop  offset="0.2945" style="stop-color:#9C9EA1"/>
		<stop  offset="0.546" style="stop-color:#58595B"/>
		<stop  offset="1" style="stop-color:#231F20"/>
	</linearGradient>
	<path fill="url(#SVGID_2_)" d="M15.81,33.719c0,0-8.478,7.902-10.437,18.655l7.019,2.201c0,0,16.991-9.483,16.794-9.484
		C28.986,45.091,15.81,33.719,15.81,33.719z"/>
	<path fill="#A6A8AB" d="M15.305,38.106c0,0,8.594,4.885,7.206,5.313c-1.388,0.43-8.554,0.562-8.554,0.562L15.305,38.106z"/>
	
		<linearGradient id="SVGID_3_" gradientUnits="userSpaceOnUse" x1="-1.8962" y1="28.8096" x2="8.1511" y2="28.8096" gradientTransform="matrix(-1 -0.0015 0.0015 -1 240.6325 121.9427)">
		<stop  offset="0" style="stop-color:#58595B"/>
		<stop  offset="0.5092" style="stop-color:#373537"/>
		<stop  offset="1" style="stop-color:#231F20"/>
	</linearGradient>
	<path fill="url(#SVGID_3_)" d="M232.527,91.359l1.57,3.272c0,0,0.604,1.152,1.027,1.153c0.425,0,3.332,0.064,3.332,0.064
		s1.273,0.002,1.881-0.845c0.607-0.849,2.977-3.571,2.008-4.36C241.376,89.854,232.527,91.359,232.527,91.359z"/>
	<path fill="#231F20" d="M91.926,90.23c-0.002,1.03,0.833,1.865,1.861,1.867l67.637,0.104c1.03,0,1.866-0.832,1.867-1.861l0,0
		c0.002-1.029-0.831-1.865-1.859-1.867L93.793,88.37C92.764,88.369,91.927,89.203,91.926,90.23L91.926,90.23z"/>
	
		<linearGradient id="SVGID_4_" gradientUnits="userSpaceOnUse" x1="44.6658" y1="100.9238" x2="117.365" y2="100.9238" gradientTransform="matrix(-1 -0.0015 0.0015 -1 240.6325 121.9427)">
		<stop  offset="0" style="stop-color:#58595B"/>
		<stop  offset="0.5276" style="stop-color:#929497"/>
		<stop  offset="1" style="stop-color:#404041"/>
	</linearGradient>
	<path fill="url(#SVGID_4_)" d="M196.095,36.252c0,0-40.759-28.808-72.65-32.564l62.633,34.405L196.095,36.252z"/>
	<path fill="#A6A8AB" d="M194.28,35.047c0,0-2.57-1.749-2.875-1.945c0,0-8.482-0.843-9.18-0.909l3.18,2.645L194.28,35.047z"/>
	<path fill="#231F20" d="M201.993,35.424c0,0-0.696-0.897-2.347-0.962s-3.444-0.195-3.885,0.701L201.993,35.424z"/>
	
		<linearGradient id="SVGID_5_" gradientUnits="userSpaceOnUse" x1="-10.2659" y1="43.417" x2="2.376" y2="45.6461" gradientTransform="matrix(-1 -0.0015 0.0015 -1 240.6325 121.9427)">
		<stop  offset="0" style="stop-color:#58595B"/>
		<stop  offset="0.5092" style="stop-color:#373537"/>
		<stop  offset="1" style="stop-color:#231F20"/>
	</linearGradient>
	<path fill="url(#SVGID_5_)" d="M242.482,66.938c0,0,8.388,2.189,8.627,3.401c0.24,1.209,0.88,4.519,0.313,5.002
		c-0.564,0.484-1.051,1.451-1.216,3.87c-0.164,2.421-2.34,0.48-3.147,1.528c-0.81,1.049-1.14,5.323-1.14,5.323l-8.146,0.229
		l2.288-19.763L242.482,66.938z"/>
	<path fill="#BBBDBF" d="M251.628,74.855c0,0-0.033,0.344-0.294,0.568c-0.26,0.229-0.667,0.893-0.781,1.479
		c0,0-10.12-1.332-11.452-1.92l0.783-2.272C239.884,72.71,244.495,74.018,251.628,74.855z"/>
	<path fill="#BBBDBF" d="M242.135,79.764c2.479,0.309,5.589,0.568,5.617,0.639c0,0-0.65-0.09-1.031,0.925
		c0,0-6.513,0.329-7.912,3.454l0.271-5.534C239.079,79.246,240.451,79.552,242.135,79.764z"/>
	
		<linearGradient id="SVGID_6_" gradientUnits="userSpaceOnUse" x1="-10.8274" y1="47.0762" x2="1.4871" y2="47.0762" gradientTransform="matrix(-1 -0.0015 0.0015 -1 240.6325 121.9427)">
		<stop  offset="0" style="stop-color:#A6A8AB"/>
		<stop  offset="1" style="stop-color:#231F20"/>
	</linearGradient>
	<path fill="url(#SVGID_6_)" d="M251.53,75.211c0,0-9.392-1.285-11.674-2.043l-0.64,1.568c0,0,9.868,1.762,11.438,1.843
		C250.654,76.579,250.934,75.688,251.53,75.211z"/>
	<g>
		<g>
			<path fill="#EA2227" d="M176.922,91.715c0,0-0.962-32.652,27.924-31.154c27.364,1.418,25.668,27.48,25.659,31.67
				c0,0,17.622,0.026,18.354-5.461c0,0,0.436-1.877-5.92-2.176c0,0-4.332-0.152-3.603-5.783c0.73-5.631,1.313-8.375,1.313-8.375
				s0.008-3.756,4.049-2.447c4.043,1.306,5.631,2.029,5.055,0.007c-0.573-2.022-2.427-18.204-22.35-24.587
				c-19.922-6.386-25.409-7.983-25.409-7.983s-14.297-0.888-16.463-1.182c0,0-13.599-9.983-28.277-18.316
				c-17.025-9.669-38.06-14.24-49.804-15.238c-30.366-2.583-75.071,0.762-92.933,33.44c0,0-1.733,1.586,9.953,9.402
				c0,0,2.452,2.026-1.307,3.466c-3.758,1.438-10.119,5.763-10.119,5.763s-6.497-1.021-7.363-1.313
				c-0.865-0.29-5.368,15.734-5.668,23.391c-0.302,7.654,4.754,9.539,6.629,9.977c0,0-0.104-27.153,27.337-25.668
				c27.439,1.485,24.225,27.623,23.643,30.944L176.922,91.715z"/>
		</g>
		<defs>
			<filter id="Adobe_OpacityMaskFilter_1_" filterUnits="userSpaceOnUse" x="0" y="0" width="249.867" height="92.231">
				<feColorMatrix  type="matrix" values="1 0 0 0 0  0 1 0 0 0  0 0 1 0 0  0 0 0 1 0"/>
			</filter>
		</defs>
		<mask maskUnits="userSpaceOnUse" x="0" y="0" width="249.867" height="92.231" id="SVGID_7_">
			<g filter="url(#Adobe_OpacityMaskFilter_1_)">
			</g>
		</mask>
		<g opacity="0.2" mask="url(#SVGID_7_)">
			<path d="M176.922,91.715c0,0-0.962-32.652,27.924-31.154c27.364,1.418,25.668,27.48,25.659,31.67c0,0,17.622,0.026,18.354-5.461
				c0,0,0.436-1.877-5.92-2.176c0,0-4.332-0.152-3.603-5.783c0.73-5.631,1.313-8.375,1.313-8.375s0.008-3.756,4.049-2.447
				c4.043,1.306,5.631,2.029,5.055,0.007c-0.573-2.022-2.427-18.204-22.35-24.587c-19.922-6.386-25.409-7.983-25.409-7.983
				s-14.297-0.888-16.463-1.182c0,0-13.599-9.983-28.277-18.316c-17.025-9.669-38.06-14.24-49.804-15.238
				c-30.366-2.583-75.071,0.762-92.933,33.44c0,0-1.733,1.586,9.953,9.402c0,0,2.452,2.026-1.307,3.466
				c-3.758,1.438-10.119,5.763-10.119,5.763s-6.497-1.021-7.363-1.313c-0.865-0.29-5.368,15.734-5.668,23.391
				c-0.302,7.654,4.754,9.539,6.629,9.977c0,0-0.104-27.153,27.337-25.668c27.439,1.485,24.225,27.623,23.643,30.944L176.922,91.715
				z"/>
		</g>
	</g>
	
		<linearGradient id="SVGID_8_" gradientUnits="userSpaceOnUse" x1="131.1248" y1="80.7402" x2="124.9319" y2="115.8615" gradientTransform="matrix(-1 -0.0015 0.0015 -1 240.6325 121.9427)">
		<stop  offset="0" style="stop-color:#231F20"/>
		<stop  offset="1" style="stop-color:#404041"/>
	</linearGradient>
	<path fill="url(#SVGID_8_)" d="M183.494,43.628c0,0-128.381-15.07-143.836-15.239c0,0-10.11-0.016-2.445-6.646
		c7.665-6.634,22.851-18.165,57.656-17.824c34.81,0.342,64.828,15.12,88.2,33.354C183.069,37.271,192.447,44.509,183.494,43.628z"/>
	<polygon fill="#231F20" points="198.624,34.491 194.869,32.851 194.396,33.368 196.784,34.788 	"/>
	<path fill="#231F20" d="M193.734,34.756c0,0,1.738-1.109,1.451-1.388c-0.287-0.28-0.346-0.735-1.612-0.239
		c-1.266,0.499-1.255,0.702-1.255,0.702L193.734,34.756z"/>
	<circle fill="#231F20" cx="194.829" cy="33.002" r="0.41"/>
	<circle fill="#231F20" cx="194.856" cy="33.557" r="0.411"/>
	<path fill="#C82227" d="M213.239,59.354c0,0,30.572,5.834,36.655,9.429c0,0-0.013,0.667-1.3,0.462
		c-1.285-0.206-5.622-1.568-6.164-1.365c-0.544,0.203-1.452,0.305-1.782,2.557c-0.327,2.252-1.313,8.375-1.313,8.375
		s-2.964,5.19-2.897,7.021l-3.243-0.889c0,0-0.479-4.473-2.03-8.475c-1.554-4.001,0-0.203,0-0.203s7.215-5.457,5.21-7.691
		C232.937,64.742,213.239,59.354,213.239,59.354z"/>
	
		<linearGradient id="SVGID_9_" gradientUnits="userSpaceOnUse" x1="102.5061" y1="83.1465" x2="97.9334" y2="109.0794" gradientTransform="matrix(-1 -0.0015 0.0015 -1 240.6325 121.9427)">
		<stop  offset="0" style="stop-color:#231F20"/>
		<stop  offset="0.4663" style="stop-color:#4A4A4C"/>
		<stop  offset="1" style="stop-color:#626366"/>
	</linearGradient>
	<path fill="url(#SVGID_9_)" d="M98.624,5.766c0,0,4.272,25.77,4.271,26.588c0,0,68.079,7.686,76.697,8.813
		c0,0,7.136,1.647,1.642-2.524c-5.495-4.172-27.804-20.64-48.574-26.748C113.819,6.354,98.624,5.766,98.624,5.766z"/>
	
		<linearGradient id="SVGID_10_" gradientUnits="userSpaceOnUse" x1="177.2888" y1="90.8916" x2="172.2472" y2="119.4837" gradientTransform="matrix(-1 -0.0015 0.0015 -1 240.6325 121.9427)">
		<stop  offset="0" style="stop-color:#231F20"/>
		<stop  offset="0.4663" style="stop-color:#4A4A4C"/>
		<stop  offset="1" style="stop-color:#626366"/>
	</linearGradient>
	<path fill="url(#SVGID_10_)" d="M91.442,31.151c0,0-1.404-21.744-1.398-25.13c0,0-31.587-1.632-52.023,17.048
		c0,0-3.595,2.868,0.097,3.181C41.809,26.563,89.7,30.842,91.442,31.151z"/>
	
		<linearGradient id="SVGID_11_" gradientUnits="userSpaceOnUse" x1="62.1003" y1="101.5811" x2="142.4207" y2="101.5811" gradientTransform="matrix(-1 -0.0015 0.0015 -1 240.6325 121.9427)">
		<stop  offset="0" style="stop-color:#404041"/>
		<stop  offset="0.4785" style="stop-color:#929497"/>
		<stop  offset="1" style="stop-color:#404041"/>
	</linearGradient>
	<path fill="url(#SVGID_11_)" d="M178.662,35.946c0,0-33.394-29.463-80.162-30.824c0,0-0.357-0.646,0.205-0.646
		c0.563,0,20.69-0.53,49.797,12.389C164.161,23.816,178.662,35.946,178.662,35.946z"/>
	
		<linearGradient id="SVGID_12_" gradientUnits="userSpaceOnUse" x1="131.6218" y1="82.4395" x2="129.8183" y2="92.6679" gradientTransform="matrix(-1 -0.0015 0.0015 -1 240.6325 121.9427)">
		<stop  offset="0" style="stop-color:#404041"/>
		<stop  offset="0.4785" style="stop-color:#929497"/>
		<stop  offset="1" style="stop-color:#404041"/>
	</linearGradient>
	<path fill="url(#SVGID_12_)" d="M182.769,41.856c0,0-142.405-16.262-145.449-15.323C37.319,26.533,175.531,42.16,182.769,41.856z"
		/>
	
		<linearGradient id="SVGID_13_" gradientUnits="userSpaceOnUse" x1="168.782" y1="98.459" x2="186.1717" y2="115.8487" gradientTransform="matrix(-1 -0.0015 0.0015 -1 240.6325 121.9427)">
		<stop  offset="0" style="stop-color:#404041"/>
		<stop  offset="0.1656" style="stop-color:#505153"/>
		<stop  offset="0.4785" style="stop-color:#929497"/>
		<stop  offset="0.7975" style="stop-color:#505153"/>
		<stop  offset="1" style="stop-color:#404041"/>
	</linearGradient>
	<path fill="url(#SVGID_13_)" d="M89.91,5.373c0,0-33.962-1.306-53.445,18.745c0,0,14.854-19.588,53.446-19.45L89.91,5.373z"/>
	<path fill="#C82227" d="M37.21,30.426c0,0,67.644,11.13,76.567,12.517c34.812,5.409,90.854,15.252,90.854,15.252
		s-22.766-0.99-28.066,21.684C176.563,79.878,165.036,52.97,37.21,30.426z"/>
	<g>
		<line fill="none" x1="194.029" y1="34.848" x2="177.465" y2="33.585"/>
		<polygon fill="#404041" points="194.011,35.087 194.046,34.608 177.483,33.346 177.446,33.825 		"/>
	</g>
	
		<linearGradient id="SVGID_14_" gradientUnits="userSpaceOnUse" x1="106.7395" y1="116.4727" x2="112.4226" y2="116.4727" gradientTransform="matrix(-1 -0.0015 0.0015 -1 240.6325 121.9427)">
		<stop  offset="0" style="stop-color:#58595B"/>
		<stop  offset="0.5092" style="stop-color:#373537"/>
		<stop  offset="1" style="stop-color:#231F20"/>
	</linearGradient>
	<path fill="url(#SVGID_14_)" d="M133.729,5.687c0,0,0.722,0.726,0.055,0.892c-0.668,0.165-4.674-0.342-5.174-1.01
		c-0.5-0.669-0.055-1.671,0.279-1.559c0.335,0.111,0.923,0.598,1.478,0.765C130.924,4.943,132.673,5.295,133.729,5.687z"/>
	
		<linearGradient id="SVGID_15_" gradientUnits="userSpaceOnUse" x1="7.0657" y1="73.334" x2="11.3964" y2="65.833" gradientTransform="matrix(-1 -0.0015 0.0015 -1 240.6325 121.9427)">
		<stop  offset="0" style="stop-color:#BBBDBF"/>
		<stop  offset="1" style="stop-color:#231F20"/>
	</linearGradient>
	<path fill="url(#SVGID_15_)" d="M243.777,62.285c0,0-18.082-4.291-25.319-16.975c0,0-1.841-2.192,2.995-1.378
		C227.247,44.907,239.65,48.684,243.777,62.285z"/>
	<path fill="#E6E7E8" d="M221.453,43.933c5.794,0.975,18.197,4.751,22.324,18.353c0,0-0.022-0.006-0.063-0.015
		c-4.527-12.459-16.264-16.011-21.853-16.948c-2.176-0.367-2.995-0.124-3.245,0.253c-0.053-0.088-0.109-0.176-0.16-0.265
		C218.458,45.311,216.617,43.118,221.453,43.933z"/>
	<path fill="#231F20" d="M218.458,44.735c6.784,11.885,23.089,16.4,25.111,16.922c0.07,0.209,0.144,0.413,0.208,0.628
		c0,0-18.082-4.291-25.319-16.975c0,0-0.504-0.604-0.279-1.063C218.277,44.519,218.458,44.735,218.458,44.735z"/>
	<path opacity="0.8" fill="#E6E7E8" enable-background="new    " d="M218.94,45.572c0,0,2.468-0.461,8.221,1.45
		c0,0-1.096,3.722,0.813,6.932c0,0-1.89-1.987-2.161-4.388c0,0-3.852-1.021-4.774-1.16L218.94,45.572z"/>
	<path opacity="0.2" fill="#F1F1F2" enable-background="new    " d="M228.507,54.061c0,0-1.711-3.027-0.984-6.831
		c0,0,4.368,2.95,5.229,8.321C232.751,55.551,230.859,55.497,228.507,54.061z"/>
	<path opacity="0.5" fill="#E6E7E8" enable-background="new    " d="M243.069,60.512c0,0-3.195-0.806-3.675-1.445
		s-1.115-2.239-1.115-2.239l2.396,0.323l-3.194-2.084l1.761-0.957l2.395,3.201L243.069,60.512z"/>
	<polygon fill="#404041" points="245.414,56.702 241.338,56.502 241.532,56.893 245.703,57.141 	"/>
	<polygon opacity="0.5" fill="#808184" enable-background="new    " points="218.178,44.248 193.47,34.983 194.029,34.848 
		218.484,43.788 	"/>
	<g>
		<g>
			<g>
				
					<linearGradient id="SVGID_16_" gradientUnits="userSpaceOnUse" x1="181.9792" y1="73.7266" x2="181.6914" y2="77.0157" gradientTransform="matrix(-0.9993 -0.036 0.036 -0.9993 228.0085 119.7305)">
					<stop  offset="0" style="stop-color:#FFFFFF"/>
					<stop  offset="0.3252" style="stop-color:#B5B7B9"/>
					<stop  offset="0.4663" style="stop-color:#808184"/>
					<stop  offset="0.6074" style="stop-color:#ACAEB0"/>
					<stop  offset="1" style="stop-color:#FFFFFF"/>
				</linearGradient>
				<path fill="url(#SVGID_16_)" d="M43.781,35.62c0.014,0,0.028-0.002,0.043-0.001l0.07,0.005c0.008,0.001,0.02,0.001,0.029,0.003
					c0.01,0,0.021,0.003,0.029,0.004l1.733,0.16c0.477,0.044,0.857,0.356,1.023,0.771c0.048,0.035,0.102,0.072,0.145,0.108
					l10.215,1.2c0.518,0.062,0.888,0.529,0.827,1.046c-0.063,0.517-0.529,0.888-1.047,0.826l-10.343-1.214
					c-0.009,0.004-0.021,0.007-0.03,0.012c-0.246,0.324-0.646,0.519-1.084,0.479l-1.707-0.159c-0.039-0.003-0.073-0.002-0.112-0.005
					c-2-0.22-3.47-1.304-3.444-2.01C40.154,36.161,41.844,35.45,43.781,35.62z"/>
			</g>
		</g>
		<g>
			
				<linearGradient id="SVGID_17_" gradientUnits="userSpaceOnUse" x1="187.0476" y1="74.9854" x2="187.0476" y2="76.4551" gradientTransform="matrix(-0.9993 -0.036 0.036 -0.9993 228.0085 119.7305)">
				<stop  offset="0" style="stop-color:#231F20"/>
				<stop  offset="0.5153" style="stop-color:#4A4A4C"/>
				<stop  offset="1" style="stop-color:#626366"/>
			</linearGradient>
			<circle fill="url(#SVGID_17_)" cx="43.818" cy="37.328" r="0.735"/>
			
				<linearGradient id="SVGID_18_" gradientUnits="userSpaceOnUse" x1="187.0515" y1="76.2266" x2="187.0515" y2="75.2168" gradientTransform="matrix(-0.9993 -0.036 0.036 -0.9993 228.0104 119.7305)">
				<stop  offset="0" style="stop-color:#58595B"/>
				<stop  offset="1" style="stop-color:#FFFFFF"/>
			</linearGradient>
			<circle fill="url(#SVGID_18_)" cx="43.817" cy="37.328" r="0.504"/>
		</g>
	</g>
	<path opacity="0.2" fill="#FFFFFF" enable-background="new    " d="M17.965,42.673c0.215-1.058-2.434-4.151-4.153-5.091
		c0.107-0.108,0.171-0.166,0.171-0.166s8.006,4.586,7.577,6.683c-0.428,2.098-9.083,6.709-12.9,6.553
		c-1.063-0.043-1.137-0.047-0.881-0.84C11.19,49.74,17.626,44.33,17.965,42.673z"/>
	
		<ellipse transform="matrix(-0.1991 0.98 -0.98 -0.1991 237.088 -121.3596)" fill="#231F20" cx="168.134" cy="36.198" rx="3.825" ry="5.833"/>
	<g>
		<g>
			<g>
				
					<linearGradient id="SVGID_19_" gradientUnits="userSpaceOnUse" x1="80.3176" y1="89.1934" x2="68.8688" y2="85.0264" gradientTransform="matrix(-1 -0.0015 0.0015 -1 240.6325 121.9427)">
					<stop  offset="0" style="stop-color:#C20000"/>
					<stop  offset="1" style="stop-color:#FF0000"/>
				</linearGradient>
				<path fill="url(#SVGID_19_)" d="M167.164,38.977c2.51,0.558,3.486-0.681,3.822-1.114c0.517-0.665,1.227-1.706,1.486-2.694
					c0.19-0.731,0.251-1.657-1.547-2.773c-2.756-1.713-8.186-4.222-9.639-1.755c-1.705,2.897-0.891,6.821,1.174,7.319
					C163.573,38.229,165.513,38.608,167.164,38.977z"/>
			</g>
			<defs>
				<filter id="Adobe_OpacityMaskFilter_2_" filterUnits="userSpaceOnUse" x="160.365" y="29.608" width="12.199" height="9.51">
					<feColorMatrix  type="matrix" values="1 0 0 0 0  0 1 0 0 0  0 0 1 0 0  0 0 0 1 0"/>
				</filter>
			</defs>
			<mask maskUnits="userSpaceOnUse" x="160.365" y="29.608" width="12.199" height="9.51" id="SVGID_20_">
				<g filter="url(#Adobe_OpacityMaskFilter_2_)">
				</g>
			</mask>
			<g opacity="0.4" mask="url(#SVGID_20_)">
				<path fill="#000101" d="M167.164,38.977c2.51,0.558,3.486-0.681,3.822-1.114c0.517-0.665,1.227-1.706,1.486-2.694
					c0.19-0.731,0.251-1.657-1.547-2.773c-2.756-1.713-8.186-4.222-9.639-1.755c-1.705,2.897-0.891,6.821,1.174,7.319
					C163.573,38.229,165.513,38.608,167.164,38.977z"/>
			</g>
		</g>
		<path opacity="0.3" fill="#FFFFFF" enable-background="new    " d="M160.371,33.957c0.021-1.101,0.304-2.275,0.917-3.317
			c1.453-2.467,6.883,0.042,9.64,1.755c1.711,1.063,1.736,1.952,1.568,2.665C168.257,34.09,163.103,33.952,160.371,33.957z"/>
	</g>
	<g opacity="0.8">
		<path fill="#231F20" d="M166.524,87.377c4.773,0.007,5.391-2.15,5.938-4.059c0.098-0.336,0.19-0.668,0.31-0.989
			c0.158-0.438,3.917-10.892,4.05-25.554c0.12-13.102-9.185-30.041-9.277-30.21l-0.42,0.232c0.093,0.168,9.335,17,9.217,29.973
			c-0.132,14.582-3.861,24.961-4.02,25.396c-0.12,0.331-0.22,0.676-0.32,1.021c-0.558,1.953-1.085,3.789-5.753,3.709
			c-5.629-0.108-95.81-2.422-96.72-2.445c-0.088,0-6.854,0.314-8.466-4.545c-0.157-0.479-0.322-1.014-0.501-1.598
			c-1.689-5.515-4.838-15.774-18.048-23.841c0-0.002-2.08-1.594-3.355-2.774c-1.278-1.183-1.725-2.896-1.91-7.331
			c-0.197-4.681,1.244-20.557,2.514-23.474l-0.439-0.191c-1.286,2.956-2.751,18.974-2.553,23.686
			c0.192,4.587,0.675,6.376,2.063,7.662c1.29,1.195,3.39,2.802,3.41,2.817c13.075,7.984,16.188,18.133,17.859,23.586
			c0.181,0.587,0.346,1.125,0.506,1.607c1.729,5.213,8.854,4.872,8.927,4.873c0.891,0.023,91.072,2.338,96.704,2.444
			C166.335,87.375,166.431,87.377,166.524,87.377L166.524,87.377z"/>
	</g>
	<g>
		<g>
			<g>
				
					<linearGradient id="SVGID_21_" gradientUnits="userSpaceOnUse" x1="117.0247" y1="67.6475" x2="116.7369" y2="70.9357" gradientTransform="matrix(-0.9993 -0.036 0.036 -0.9993 228.0085 119.7305)">
					<stop  offset="0" style="stop-color:#FFFFFF"/>
					<stop  offset="0.3252" style="stop-color:#B5B7B9"/>
					<stop  offset="0.4663" style="stop-color:#808184"/>
					<stop  offset="0.6074" style="stop-color:#ACAEB0"/>
					<stop  offset="1" style="stop-color:#FFFFFF"/>
				</linearGradient>
				<path fill="url(#SVGID_21_)" d="M108.471,44.034c0.015,0,0.027-0.002,0.044,0l0.068,0.004c0.011,0.002,0.021,0.001,0.031,0.004
					c0.009,0.001,0.019,0.003,0.029,0.004l1.731,0.16c0.478,0.043,0.858,0.355,1.025,0.771c0.048,0.036,0.1,0.072,0.144,0.108
					l10.215,1.2c0.519,0.063,0.89,0.529,0.826,1.047c-0.061,0.517-0.527,0.886-1.046,0.826l-10.342-1.215
					c-0.009,0.005-0.022,0.007-0.031,0.013c-0.246,0.323-0.646,0.518-1.084,0.479l-1.708-0.159
					c-0.038-0.003-0.071-0.002-0.111-0.007c-1.999-0.218-3.471-1.303-3.443-2.01C104.845,44.576,106.535,43.866,108.471,44.034z"/>
			</g>
		</g>
		<g>
			
				<linearGradient id="SVGID_22_" gradientUnits="userSpaceOnUse" x1="122.093" y1="68.9063" x2="122.093" y2="70.3779" gradientTransform="matrix(-0.9993 -0.036 0.036 -0.9993 228.0085 119.7305)">
				<stop  offset="0" style="stop-color:#231F20"/>
				<stop  offset="0.5153" style="stop-color:#4A4A4C"/>
				<stop  offset="1" style="stop-color:#626366"/>
			</linearGradient>
			<circle fill="url(#SVGID_22_)" cx="108.508" cy="45.742" r="0.736"/>
			
				<linearGradient id="SVGID_23_" gradientUnits="userSpaceOnUse" x1="122.0974" y1="70.1465" x2="122.0974" y2="69.1387" gradientTransform="matrix(-0.9993 -0.036 0.036 -0.9993 228.0104 119.7305)">
				<stop  offset="0" style="stop-color:#58595B"/>
				<stop  offset="1" style="stop-color:#FFFFFF"/>
			</linearGradient>
			<circle fill="url(#SVGID_23_)" cx="108.507" cy="45.742" r="0.504"/>
		</g>
	</g>
	<g opacity="0.8">
		<path fill="#231F20" d="M97.293,85.462c3.328-3.882,1.497-36.466,0.98-41.374c-0.598-5.659-3.832-39.484-3.865-39.826L93.93,4.311
			c0.032,0.339,3.268,34.168,3.864,39.83c0.636,6.014,2.206,37.419-0.862,41.003L97.293,85.462L97.293,85.462z"/>
	</g>
</g>
</svg>
