<svg xmlns="http://www.w3.org/2000/svg" width="20" height="20" viewBox="0 0 20 20">
    <g fill="#7E8B98" fill-rule="nonzero">
        <path d="M17.861 4.727H16.25V2.148A2.15 2.15 0 0 0 14.102 0H5.898A2.15 2.15 0 0 0 3.75 2.148v2.579H2.139C.959 4.727 0 5.686 0 6.865v10.996C0 19.041.96 20 2.139 20H17.86c1.18 0 2.139-.96 2.139-2.139V6.865c0-1.179-.96-2.138-2.139-2.138zm-5.127-.04H7.266V3.516h5.468v1.171zM4.922 2.148c0-.538.438-.976.976-.976h8.204c.538 0 .976.438.976.976v2.54h-1.172V2.93a.586.586 0 0 0-.586-.586H6.68a.586.586 0 0 0-.586.586v1.757H4.922V2.148zm-3.75 10.556l1.035-1.035 2.195 2.194-2.195 2.195-1.035-1.035v-2.32zm16.69 6.124H2.138a.968.968 0 0 1-.967-.967V16.68l.62.62a.586.586 0 0 0 .83 0l3.023-3.023a.586.586 0 0 0 0-.828L2.62 10.426a.586.586 0 0 0-.828 0l-.621.62v-4.18c0-.534.434-.968.967-.968H17.86c.533 0 .967.434.967.967v7.197H14.61a.586.586 0 0 0-.586.586v2.5c0 .324.263.586.586.586h4.22v.127a.968.968 0 0 1-.968.967zm.966-2.265h-3.633v-1.329h3.633v1.329z"/>
        <path d="M6.923 8.166a.567.567 0 0 0-.802 0l-1.955 1.955a.566.566 0 0 0 0 .802l3.91 3.91a.567.567 0 0 0 .803 0l1.955-1.954a.567.567 0 0 0 0-.802l-3.91-3.91zm1.555 5.465l-3.109-3.109L6.522 9.37l3.109 3.109-1.153 1.153zM18 10.5C18 9.121 16.879 8 15.5 8a2.503 2.503 0 0 0-2.5 2.5c0 1.379 1.121 2.5 2.5 2.5s2.5-1.121 2.5-2.5zm-3.864 0c0-.752.612-1.364 1.364-1.364.752 0 1.364.612 1.364 1.364 0 .752-.612 1.364-1.364 1.364a1.365 1.365 0 0 1-1.364-1.364z"/>
    </g>
</svg>
