<svg xmlns="http://www.w3.org/2000/svg" width="60" height="43" viewBox="0 0 60 43">
    <g fill="none" fill-rule="evenodd">
        <path d="M0-9h60v60H0z"/>
        <g>
            <rect width="54.472" height="21.829" x="2.293" y="14.715" fill="#35495E" rx="7"/>
            <path fill="#FFF" d="M52.356 26.916c2.265-1.742 3.359-4.58 2.294-5.828-1.065-1.25-3.971-.47-6.563.701-2.592 1.171-3.45 2.56-2.371 4.715 1.078 2.155 4.375 2.155 6.64.412zM6.68 26.916c-2.265-1.742-3.359-4.58-2.294-5.828 1.065-1.25 3.971-.47 6.563.701 2.592 1.171 3.45 2.56 2.371 4.715-1.078 2.155-4.375 2.155-6.64.412z"/>
            <rect width="6.809" height="3.234" y="11.026" fill="#35495E" rx="1.617"/>
            <rect width="6.809" height="3.234" x="52.222" y="11.026" fill="#35495E" rx="1.617"/>
            <path fill="#35495E" d="M7.89 13.904h43.317c.459 0 .568-.274.329-.82-.148-.337-1.935-4.142-3.877-7.356-1.296-2.145-2.081-3.733-3.064-4.398C43.61.664 42.328.428 40.308.323 35.082.052 24.225.052 18.09.3c-1.873.076-2.895.886-3.118 1.03-.32.206-1.693 1.313-2.757 2.935-2.253 3.431-4.813 8.671-4.947 9.079-.131.4.076.586.623.56zM11.504 37.48v1.331a4.085 4.085 0 1 1-8.17 0v-4.632c1.703 1.372 3.032 2.25 3.988 2.635.956.384 2.35.607 4.182.666zM47.778 37.48v1.331a4.085 4.085 0 1 0 8.17 0v-4.632c-1.703 1.372-3.032 2.25-3.988 2.635-.956.384-2.35.607-4.182.666z"/>
        </g>
        <g fill="#FFF" transform="translate(6 17)">
            <rect width="39.603" height="1.745" x="3.866" y="2.9" rx=".872"/>
            <path d="M1.92 1l2.67 1.962c.39.286.526.806.326 1.246a.673.673 0 0 1-1.011.265L1.233 2.51a1.022 1.022 0 0 1-.325-1.246A.673.673 0 0 1 1.919 1zM45.29.992l-2.672 1.962c-.39.286-.525.806-.326 1.246a.673.673 0 0 0 1.012.265l2.671-1.962c.39-.287.526-.807.326-1.247A.673.673 0 0 0 45.29.992z"/>
        </g>
        <g fill="#FFF" transform="matrix(1 0 0 -1 9 35)">
            <rect width="39.322" height="1.599" x=".434" y="3.485" rx=".8"/>
            <path d="M38.383 1.01v3.236a.68.68 0 1 0 1.362 0V1.01a.68.68 0 1 0-1.362 0zM.423 1.21v3.236a.68.68 0 1 0 1.362 0V1.21a.68.68 0 0 0-1.362 0z"/>
        </g>
    </g>
</svg>
