<?xml version="1.0" encoding="utf-8"?>
<!-- Generator: Adobe Illustrator 16.0.0, SVG Export Plug-In . SVG Version: 6.00 Build 0)  -->
<!DOCTYPE svg PUBLIC "-//W3C//DTD SVG 1.1//EN" "http://www.w3.org/Graphics/SVG/1.1/DTD/svg11.dtd">
<svg version="1.1" id="Layer_1" xmlns="http://www.w3.org/2000/svg" xmlns:xlink="http://www.w3.org/1999/xlink" x="0px" y="0px"
	 width="112.654px" height="33.333px" viewBox="0 0 112.654 33.333" enable-background="new 0 0 112.654 33.333"
	 xml:space="preserve">
<path fill="#DEE2E6" d="M112.74,18.705v-2.674h-1.757v-4.432h0.188v-0.218h-1.38v-0.349h-1.468v0.349h-0.175v0.218h0.16v2.611
	h-0.184l-0.006-0.911l-0.944-0.727h-2.514v-0.246h-1.904V9.812h-0.9V9.027h-3.038v0.741h-1.337v6.457h-0.988v2.156h-0.666v-2.658
	l-1.394-1.119h-3.526v0.548h-0.632v0.655h-0.262v-2.148l0.012-0.984l-2.371-1.478H83.51v0.464h-0.238v3.015h-2.8v-1.871h-0.918v-0.5
	H79.53v-0.238h-2.764v-1.132h-0.25v1.132h-0.691v0.238h-0.488v0.428H75.1v-8.67l0.062-0.006L75.1,3.977V3.886H75.03l-1.09-1.418
	V1.829h-6.259v0.769l-1.686,1.13v4.224h-1.782V7.506h-0.407V6.44h-4.728v0.62H58.71v0.446h-0.29v8.188h-0.385v-0.806h-1.458V1.424
	h-0.019l0.023-0.003l-1.395-0.737L54.344,0h-3.421v0.737h-1.579v11.119h-1.646V9.535l-0.854-1.113h-1.395V7.895h-3.947v0.526h-0.974
	v3.158H38.66v-0.342h-1.053v-0.579h-0.763V9.474h-0.342v1.185H36.16v0.579h-0.13c0.043-1.36-0.031-2.853,0.03-4.197l-0.504-0.523
	H35.09V5.936h-2.538v0.582h-0.969v10.967h-0.819v0.814h-0.305v-1.361l0.029-0.006l-0.029-0.001v-0.274h-0.664l0.01-0.436
	l-1.25-1.207h-1.569v-0.377h-0.291v-0.232h-1.828l0.04-5.334l-4.795-0.015l-2.369,1.86v7.789H16.77v-0.596h-0.261v-0.697h-0.175
	v-1.816h-0.363v1.816h-0.16v0.697h-0.232v0.596h-1.207v-0.131h-0.755v-0.552h-0.378v0.552h-0.232v-4.402h-1.378V13.95h0.026v-0.433
	h-0.238v-0.264H9.048v0.264h-0.17v0.391H8.854l0.007-3.541c-0.311-0.383-0.333-0.314-0.569-0.672H6.956V8.61H4.93V5.772H4.655V8.61
	H2.829v1.085H1.104v1.124h0.001v6.501H0.772v0.316h-0.29v1.068h-0.566v14.628h112.854V18.705H112.74z"/>
</svg>
