<svg xmlns="http://www.w3.org/2000/svg" width="20" height="9" viewBox="0 0 20 9">
    <g fill="#FFF" fill-rule="nonzero">
        <path d="M4.5 6C3.673 6 3 6.673 3 7.5S3.673 9 4.5 9 6 8.327 6 7.5 5.327 6 4.5 6zm0 2.4a.901.901 0 0 1 0-1.8.901.901 0 0 1 0 1.8z"/>
        <path d="M19.667 5.954V3.908a.34.34 0 0 0-.228-.323l-1.88-.642c-.71-1.227-1.683-2.395-3.835-2.78L13.712.16C9.74-.402 6.755.515 4.84 2.887c-1.426.02-2.881.326-3.737.886-.443.29-.706.796-.731 1.334l-.039.847A.337.337 0 0 0 0 6.295V7.66C0 7.847.15 8 .333 8h1.334A.34.34 0 0 0 2 7.655V7.65c.005-1.314 1.048-2.378 2.333-2.378 1.289 0 2.334 1.069 2.334 2.387C6.643 7.866 6.802 8 7 8h6a.34.34 0 0 0 .333-.345V7.65c.006-1.314 1.048-2.378 2.334-2.378C16.955 5.272 18 6.341 18 7.659c-.024.207.136.341.333.341h1.334A.337.337 0 0 0 20 7.659V6.295c0-.188-.15-.34-.333-.34zm-9-3.24c0 .095-.075.171-.167.171H6.153c-.154 0-.224-.194-.11-.3C7.199 1.507 8.67.89 10.483.726a.172.172 0 0 1 .184.172v1.817zm4.004.002a.169.169 0 0 1-.166.17H11.5a.169.169 0 0 1-.167-.171V.853A.17.17 0 0 1 11.5.68c.665-.001 1.368.048 2.116.154.356.064.673.152.962.26a.17.17 0 0 1 .108.163l-.014 1.458zm1.74.17h-.906a.169.169 0 0 1-.167-.173l.009-.924a.168.168 0 0 1 .27-.134c.36.27.66.59.926.954.083.114.007.276-.132.276z"/>
        <path d="M15.5 6c-.827 0-1.5.673-1.5 1.5S14.673 9 15.5 9 17 8.327 17 7.5 16.327 6 15.5 6zm0 2.4a.901.901 0 0 1 0-1.8.901.901 0 0 1 0 1.8z"/>
    </g>
</svg>
