<svg xmlns="http://www.w3.org/2000/svg" width="60" height="60" viewBox="0 0 60 60">
    <g fill="#35495E" fill-rule="nonzero">
        <path d="M30 0C17.318 0 7 10.292 7 22.941v21.176c0 2.92 2.381 5.295 5.308 5.295s5.308-2.375 5.308-5.295V26.471c0-2.92-2.381-5.294-5.308-5.294-.596 0-1.16.12-1.695.301C11.368 11.458 19.765 3.53 30 3.53c10.23 0 18.625 7.921 19.386 17.935a5.224 5.224 0 0 0-1.694-.287c-2.927 0-5.308 2.374-5.308 5.294v17.646c0 2.92 2.381 5.295 5.308 5.295.624 0 1.213-.127 1.77-.325v2.09a1.77 1.77 0 0 1-1.77 1.764h-12.71c-.733-2.05-2.679-3.53-4.982-3.53-2.927 0-5.308 2.376-5.308 5.295C24.692 57.626 27.073 60 30 60c2.303 0 4.249-1.48 4.982-3.53h12.71c2.927 0 5.308-2.374 5.308-5.293V22.94C53 10.291 42.682 0 30 0zM56 25v21c2.323-.747 4-2.733 4-5.084V30.084c0-2.35-1.677-4.336-4-5.084zM0 30.084v10.832C0 43.267 1.677 45.253 4 46V25c-2.323.748-4 2.733-4 5.084z"/>
    </g>
</svg>
