<?xml version="1.0" encoding="utf-8"?>
<!-- Generator: Adobe Illustrator 16.0.0, SVG Export Plug-In . SVG Version: 6.00 Build 0)  -->
<!DOCTYPE svg PUBLIC "-//W3C//DTD SVG 1.1//EN" "http://www.w3.org/Graphics/SVG/1.1/DTD/svg11.dtd">
<svg version="1.1" id="Layer_1" xmlns="http://www.w3.org/2000/svg" xmlns:xlink="http://www.w3.org/1999/xlink" x="0px" y="0px"
	 width="6.857px" height="3.857px" viewBox="0 0 6.857 3.857" enable-background="new 0 0 6.857 3.857" xml:space="preserve">
<g>
	<path fill="#ADB5BD" d="M6.77,0.536c0,0.058-0.023,0.109-0.066,0.154L3.582,3.81C3.538,3.854,3.487,3.878,3.429,3.878
		c-0.059,0-0.109-0.023-0.154-0.067L0.154,0.69C0.11,0.645,0.087,0.594,0.087,0.536S0.11,0.427,0.154,0.382l0.335-0.335
		C0.533,0.002,0.585-0.02,0.643-0.02s0.109,0.022,0.154,0.067l2.632,2.632l2.632-2.632C6.104,0.002,6.157-0.02,6.214-0.02
		c0.059,0,0.109,0.022,0.154,0.067l0.336,0.335C6.747,0.427,6.77,0.478,6.77,0.536z"/>
</g>
</svg>
