<?xml version="1.0" encoding="utf-8"?>
<!-- Generator: Adobe Illustrator 19.0.0, SVG Export Plug-In . SVG Version: 6.00 Build 0)  -->
<svg version="1.1" id="Layer_1" xmlns="http://www.w3.org/2000/svg" xmlns:xlink="http://www.w3.org/1999/xlink" x="0px" y="0px"
	 width="59px" height="45.44px" viewBox="0 0 59 45.44" enable-background="new 0 0 59 45.44" xml:space="preserve">
<g id="g6323" transform="matrix(1.8215159,0,0,1.8215159,-8.5437653,-109.83667)">
	<path id="path6325" fill="#FFFFFF" d="M37.081,80.217c0,2.772-2.257,5.029-5.029,5.029H4.69V65.328
		c0-2.772,2.257-5.029,5.029-5.029h27.362V80.217L37.081,80.217z"/>
	<g id="g6327">
		
			<linearGradient id="path6338_1_" gradientUnits="userSpaceOnUse" x1="-51.5138" y1="174.1929" x2="-43.6054" y2="174.1929" gradientTransform="matrix(2.0492 0 0 -2.0492 131.9686 431.1157)">
			<stop  offset="0" style="stop-color:#007940"/>
			<stop  offset="0.2285" style="stop-color:#00873F"/>
			<stop  offset="0.7433" style="stop-color:#40A737"/>
			<stop  offset="1" style="stop-color:#5CB531"/>
		</linearGradient>
		<path id="path6338" fill="url(#path6338_1_)" d="M28.172,75.109h2.079c0.059,0,0.198-0.02,0.257-0.02
			c0.396-0.079,0.733-0.436,0.733-0.931c0-0.475-0.337-0.832-0.733-0.931c-0.059-0.02-0.178-0.02-0.257-0.02h-2.079V75.109
			L28.172,75.109z"/>
		
			<linearGradient id="path6349_1_" gradientUnits="userSpaceOnUse" x1="-51.5139" y1="174.8644" x2="-43.6121" y2="174.8644" gradientTransform="matrix(2.0492 0 0 -2.0492 131.9686 431.1157)">
			<stop  offset="0" style="stop-color:#007940"/>
			<stop  offset="0.2285" style="stop-color:#00873F"/>
			<stop  offset="0.7433" style="stop-color:#40A737"/>
			<stop  offset="1" style="stop-color:#5CB531"/>
		</linearGradient>
		<path id="path6349" fill="url(#path6349_1_)" d="M30.013,61.982c-1.98,0-3.603,1.604-3.603,3.603v3.742h5.088
			c0.119,0,0.257,0,0.356,0.02c1.148,0.059,2,0.653,2,1.683c0,0.812-0.574,1.505-1.643,1.643v0.04
			c1.168,0.079,2.059,0.733,2.059,1.742c0,1.089-0.99,1.802-2.297,1.802H26.39v7.326h5.286c1.98,0,3.603-1.604,3.603-3.603V61.982
			H30.013L30.013,61.982z"/>
		
			<linearGradient id="path6360_1_" gradientUnits="userSpaceOnUse" x1="-51.5139" y1="175.6035" x2="-43.6051" y2="175.6035" gradientTransform="matrix(2.0492 0 0 -2.0492 131.9686 431.1157)">
			<stop  offset="0" style="stop-color:#007940"/>
			<stop  offset="0.2285" style="stop-color:#00873F"/>
			<stop  offset="0.7433" style="stop-color:#40A737"/>
			<stop  offset="1" style="stop-color:#5CB531"/>
		</linearGradient>
		<path id="path6360" fill="url(#path6360_1_)" d="M30.983,71.268c0-0.475-0.337-0.792-0.733-0.851c-0.04,0-0.139-0.02-0.198-0.02
			h-1.881v1.742h1.881c0.059,0,0.178,0,0.198-0.02C30.647,72.06,30.983,71.743,30.983,71.268z"/>
	</g>
	
		<linearGradient id="path6371_1_" gradientUnits="userSpaceOnUse" x1="-61.2338" y1="174.8692" x2="-53.2029" y2="174.8692" gradientTransform="matrix(2.0492 0 0 -2.0492 131.9686 431.1157)">
		<stop  offset="0" style="stop-color:#1F286F"/>
		<stop  offset="0.4751" style="stop-color:#004E94"/>
		<stop  offset="0.8261" style="stop-color:#0066B1"/>
		<stop  offset="1" style="stop-color:#006FBC"/>
	</linearGradient>
	<path id="path6371" fill="url(#path6371_1_)" d="M10.096,61.982c-1.98,0-3.603,1.604-3.603,3.603v8.89
		c1.01,0.495,2.059,0.812,3.108,0.812c1.247,0,1.92-0.752,1.92-1.782v-4.197h3.089v4.178c0,1.623-1.01,2.95-4.435,2.95
		c-2.079,0-3.702-0.455-3.702-0.455v7.583h5.286c1.98,0,3.603-1.604,3.603-3.603V61.982C15.362,61.982,10.096,61.982,10.096,61.982z
		"/>
	
		<linearGradient id="path6384_1_" gradientUnits="userSpaceOnUse" x1="-56.397" y1="174.8596" x2="-48.5971" y2="174.8596" gradientTransform="matrix(2.0492 0 0 -2.0492 131.9686 431.1157)">
		<stop  offset="0" style="stop-color:#6C2C2F"/>
		<stop  offset="0.1735" style="stop-color:#882730"/>
		<stop  offset="0.5731" style="stop-color:#BE1833"/>
		<stop  offset="0.8585" style="stop-color:#DC0436"/>
		<stop  offset="1" style="stop-color:#E60039"/>
	</linearGradient>
	<path id="path6384" fill="url(#path6384_1_)" d="M20.054,61.982c-1.98,0-3.603,1.604-3.603,3.603v4.712
		c0.911-0.772,2.495-1.267,5.049-1.148c1.366,0.059,2.831,0.436,2.831,0.436v1.524c-0.733-0.376-1.604-0.713-2.732-0.792
		c-1.94-0.139-3.108,0.812-3.108,2.475c0,1.683,1.168,2.633,3.108,2.475c1.129-0.079,2-0.436,2.732-0.792V76
		c0,0-1.445,0.376-2.831,0.436c-2.554,0.119-4.138-0.376-5.049-1.148v8.315h5.286c1.98,0,3.603-1.604,3.603-3.603V61.982
		C25.34,61.982,20.054,61.982,20.054,61.982z"/>
</g>
</svg>
