<?xml version="1.0" encoding="utf-8"?>
<!-- Generator: Adobe Illustrator 16.0.0, SVG Export Plug-In . SVG Version: 6.00 Build 0)  -->
<!DOCTYPE svg PUBLIC "-//W3C//DTD SVG 1.1//EN" "http://www.w3.org/Graphics/SVG/1.1/DTD/svg11.dtd">
<svg version="1.1" id="Layer_1" xmlns="http://www.w3.org/2000/svg" xmlns:xlink="http://www.w3.org/1999/xlink" x="0px" y="0px"
	 width="20px" height="18.772px" viewBox="14.998 15.631 20 18.772" enable-background="new 14.998 15.631 20 18.772"
	 xml:space="preserve">
<path fill="#FFFFFF" d="M25,15.631c-5.44,0-10.001,3.482-10.001,8.026c0,4.053,3.616,7.287,8.336,7.912h0.001
	c0.125,0,0.268,0.136,0.352,0.175c0.017,0.009,0.015,0.042,0.024,0.049c-0.001,0.051-0.053,0.304-0.077,0.484
	c-0.005,0.036-0.196,0.658-0.196,0.777v0.001c0,0.168-0.072,0.503,0.212,0.932c0.142,0.214,0.471,0.388,0.747,0.411
	c0.276,0.024,0.546-0.044,0.829-0.163c0.646-0.269,1.946-1.031,3.438-2.052c1.491-1.02,3.104-2.258,4.157-3.445
	c1.433-1.542,2.177-3.204,2.177-5.015C34.998,19.181,30.439,15.631,25,15.631z M20.624,26.569h-1.875
	c-0.345,0-0.937-0.593-0.937-0.938v-3.75c0-0.345,0.28-0.625,0.625-0.625s0.625,0.28,0.625,0.625v3.438h1.562
	c0.345,0,0.625,0.281,0.625,0.625S20.969,26.569,20.624,26.569z M22.813,25.632c0,0.345-0.28,0.625-0.625,0.625
	s-0.625-0.28-0.625-0.625v-3.75c0-0.345,0.28-0.625,0.625-0.625s0.625,0.28,0.625,0.625V25.632z M27.188,25.632
	c0,0.607-0.78,0.857-1.134,0.362l-1.366-2.162v1.8c0,0.345-0.28,0.625-0.625,0.625c-0.345,0-0.625-0.28-0.625-0.625v-3.75
	c0-0.38,0.46-0.62,0.775-0.626c0.189-0.004,0.304,0.078,0.436,0.264l1.288,2.237v-1.875c0-0.345,0.28-0.625,0.625-0.625
	s0.625,0.28,0.625,0.625V25.632z M30.625,23.444c0.346,0,0.625,0.28,0.625,0.625c0,0.345-0.279,0.625-0.625,0.625h-1.562v0.625
	h1.562c0.345,0,0.625,0.281,0.625,0.625s-0.28,0.625-0.625,0.625h-1.876c-0.345,0-0.937-0.593-0.937-0.938v-3.75
	c0-0.345,0.592-0.313,0.937-0.313h1.876c0.345,0,0.625,0.28,0.625,0.625c0,0.345-0.28,0.625-0.625,0.625h-1.562v0.625H30.625z"/>
</svg>
