<?xml version="1.0" encoding="utf-8"?>
<!-- Generator: Adobe Illustrator 19.0.0, SVG Export Plug-In . SVG Version: 6.00 Build 0)  -->
<svg version="1.1" id="Layer_1" xmlns="http://www.w3.org/2000/svg" xmlns:xlink="http://www.w3.org/1999/xlink" x="0px" y="0px"
	 width="59.337px" height="46.166px" viewBox="0 0 59.337 46.166" enable-background="new 0 0 59.337 46.166" xml:space="preserve">
<g id="XMLID_50_">
	<g transform="matrix(1.25 0 0 -1.25 1102.5 727.74)">
		<path fill="#FFFFFF" d="M-835.5,545.76v-0.096h0.089c0.02,0,0.036,0.005,0.048,0.012c0.011,0.007,0.018,0.021,0.018,0.036
			s-0.007,0.028-0.018,0.035c-0.012,0.008-0.029,0.012-0.048,0.012H-835.5z M-835.411,545.827c0.046,0,0.081-0.01,0.106-0.031
			c0.025-0.021,0.037-0.049,0.037-0.084c0-0.03-0.009-0.054-0.03-0.074c-0.02-0.019-0.048-0.031-0.085-0.035l0.118-0.135h-0.091
			l-0.109,0.134h-0.035v-0.134h-0.076v0.359H-835.411z M-835.434,545.344c0.042,0,0.081,0.008,0.117,0.024
			c0.036,0.016,0.068,0.037,0.095,0.064c0.027,0.027,0.048,0.059,0.064,0.096c0.015,0.036,0.023,0.076,0.023,0.118
			s-0.008,0.081-0.023,0.118c-0.016,0.036-0.037,0.069-0.064,0.096c-0.027,0.027-0.059,0.049-0.095,0.064
			c-0.035,0.015-0.075,0.022-0.117,0.022s-0.082-0.008-0.119-0.022c-0.037-0.016-0.07-0.037-0.097-0.064
			c-0.027-0.027-0.049-0.06-0.063-0.096c-0.016-0.036-0.023-0.076-0.023-0.118s0.007-0.081,0.023-0.118
			c0.015-0.037,0.036-0.069,0.063-0.096c0.027-0.027,0.06-0.049,0.097-0.064C-835.516,545.353-835.476,545.344-835.434,545.344
			 M-835.434,546.034c0.055,0,0.105-0.01,0.154-0.031c0.048-0.02,0.089-0.048,0.125-0.083c0.035-0.034,0.063-0.076,0.084-0.123
			c0.021-0.047,0.031-0.097,0.031-0.15c0-0.053-0.01-0.104-0.031-0.15c-0.021-0.047-0.049-0.088-0.084-0.123
			c-0.036-0.035-0.077-0.063-0.125-0.083c-0.049-0.021-0.099-0.031-0.154-0.031c-0.056,0-0.107,0.01-0.156,0.031
			c-0.049,0.021-0.091,0.048-0.126,0.083c-0.035,0.035-0.063,0.076-0.084,0.123c-0.021,0.047-0.031,0.097-0.031,0.15
			c0,0.053,0.01,0.104,0.031,0.15c0.021,0.048,0.049,0.089,0.084,0.123c0.035,0.035,0.077,0.063,0.126,0.083
			C-835.542,546.023-835.49,546.034-835.434,546.034 M-871.784,547.417c0,0.685,0.449,1.247,1.182,1.247
			c0.701,0,1.174-0.538,1.174-1.247c0-0.709-0.473-1.247-1.174-1.247C-871.335,546.17-871.784,546.732-871.784,547.417
			 M-868.63,547.417v1.948h-0.847v-0.473c-0.269,0.351-0.676,0.571-1.231,0.571c-1.092,0-1.949-0.856-1.949-2.046
			c0-1.19,0.857-2.046,1.949-2.046c0.554,0,0.962,0.22,1.231,0.571v-0.473h0.847V547.417z M-840.002,547.417
			c0,0.685,0.449,1.247,1.182,1.247c0.702,0,1.174-0.538,1.174-1.247c0-0.709-0.472-1.247-1.174-1.247
			C-839.553,546.17-840.002,546.732-840.002,547.417 M-836.847,547.417v3.513h-0.848v-2.038c-0.269,0.351-0.676,0.571-1.231,0.571
			c-1.093,0-1.949-0.856-1.949-2.046c0-1.19,0.856-2.046,1.949-2.046c0.554,0,0.962,0.22,1.231,0.571v-0.473h0.848V547.417z
			 M-858.114,548.705c0.546,0,0.897-0.342,0.986-0.945h-2.022C-859.059,548.322-858.718,548.705-858.114,548.705 M-858.097,549.463
			c-1.142,0-1.941-0.831-1.941-2.046c0-1.239,0.831-2.046,1.997-2.046c0.587,0,1.124,0.146,1.597,0.546l-0.415,0.628
			c-0.327-0.26-0.743-0.408-1.134-0.408c-0.546,0-1.043,0.253-1.165,0.954h2.893c0.008,0.105,0.017,0.212,0.017,0.326
			C-856.255,548.632-857.006,549.463-858.097,549.463 M-847.868,547.417c0,0.685,0.449,1.247,1.182,1.247
			c0.701,0,1.174-0.538,1.174-1.247c0-0.709-0.473-1.247-1.174-1.247C-847.419,546.17-847.868,546.732-847.868,547.417
			 M-844.714,547.417v1.948h-0.847v-0.473c-0.27,0.351-0.676,0.571-1.231,0.571c-1.093,0-1.949-0.856-1.949-2.046
			c0-1.19,0.857-2.046,1.949-2.046c0.554,0,0.961,0.22,1.231,0.571v-0.473h0.847V547.417z M-852.652,547.417
			c0-1.182,0.823-2.046,2.079-2.046c0.587,0,0.978,0.131,1.401,0.465l-0.407,0.685c-0.318-0.229-0.652-0.351-1.02-0.351
			c-0.676,0.008-1.174,0.497-1.174,1.247s0.497,1.239,1.174,1.247c0.368,0,0.702-0.122,1.02-0.351l0.407,0.685
			c-0.424,0.334-0.814,0.465-1.401,0.465C-851.829,549.463-852.652,548.599-852.652,547.417 M-841.73,549.463
			c-0.489,0-0.807-0.229-1.027-0.571v0.473h-0.84v-3.896h0.848v2.184c0,0.645,0.277,1.003,0.831,1.003
			c0.172,0,0.351-0.024,0.53-0.098l0.261,0.799C-841.314,549.431-841.558,549.463-841.73,549.463 M-864.44,549.055
			c-0.408,0.269-0.969,0.408-1.589,0.408c-0.987,0-1.622-0.473-1.622-1.247c0-0.635,0.473-1.027,1.344-1.149l0.4-0.057
			c0.465-0.065,0.684-0.188,0.684-0.408c0-0.301-0.31-0.473-0.888-0.473c-0.587,0-1.01,0.188-1.296,0.408l-0.399-0.66
			c0.465-0.342,1.052-0.506,1.687-0.506c1.125,0,1.777,0.53,1.777,1.272c0,0.685-0.513,1.043-1.361,1.165l-0.399,0.058
			c-0.367,0.049-0.661,0.121-0.661,0.383c0,0.286,0.277,0.456,0.742,0.456c0.497,0,0.979-0.188,1.215-0.334L-864.44,549.055z
			 M-853.509,549.463c-0.489,0-0.807-0.229-1.026-0.571v0.473h-0.84v-3.896h0.847v2.184c0,0.645,0.277,1.003,0.831,1.003
			c0.172,0,0.351-0.024,0.53-0.098l0.261,0.799C-853.093,549.431-853.337,549.463-853.509,549.463 M-860.738,549.365h-1.385v1.182
			h-0.857v-1.182h-0.79v-0.774h0.79v-1.777c0-0.904,0.351-1.442,1.353-1.442c0.368,0,0.791,0.114,1.06,0.301l-0.244,0.726
			c-0.253-0.146-0.53-0.22-0.75-0.22c-0.424,0-0.562,0.261-0.562,0.652v1.761h1.385V549.365z M-873.405,545.469v2.445
			c0,0.921-0.587,1.54-1.533,1.549c-0.497,0.008-1.01-0.146-1.37-0.693c-0.269,0.432-0.692,0.693-1.287,0.693
			c-0.416,0-0.823-0.122-1.141-0.578v0.48h-0.848v-3.896h0.856v2.16c0,0.676,0.375,1.036,0.954,1.036
			c0.563,0,0.847-0.367,0.847-1.027v-2.168h0.857v2.16c0,0.676,0.391,1.036,0.953,1.036c0.578,0,0.856-0.367,0.856-1.027v-2.168
			H-873.405z"/>
	</g>
	<g transform="matrix(1.25 0 0 -1.25 1103.2 710.77)">
		<path fill="#F79410" d="M-835.538,544.85v0.569h-0.148l-0.172-0.391l-0.171,0.391h-0.149v-0.569h0.105v0.429l0.16-0.37h0.109
			l0.161,0.371v-0.43H-835.538z M-836.479,544.85v0.472h0.19v0.096h-0.485v-0.096h0.19v-0.472H-836.479z"/>
	</g>
	<path id="XMLID_3_" fill="#FF5F00" d="M37.692,32.767H21.643V3.924h16.049V32.767z"/>
	<g transform="matrix(1.25 0 0 -1.25 1064.5 698.59)">
		<path id="XMLID_2_" fill="#EB001B" d="M-833.463,544.197c0,4.681,2.192,8.85,5.604,11.537c-2.496,1.965-5.645,3.138-9.068,3.138
			c-8.104,0-14.673-6.57-14.673-14.675c0-8.105,6.569-14.675,14.673-14.675c3.423,0,6.573,1.173,9.068,3.138
			C-831.271,535.347-833.463,539.516-833.463,544.197"/>
	</g>
	<g transform="matrix(1.25 0 0 -1.25 1103.8 698.59)">
		<path id="XMLID_1_" fill="#F79E1B" d="M-835.57,544.197c0-8.105-6.569-14.675-14.673-14.675c-3.423,0-6.573,1.173-9.069,3.138
			c3.414,2.687,5.605,6.856,5.605,11.537c0,4.681-2.192,8.85-5.605,11.537c2.497,1.965,5.646,3.138,9.069,3.138
			C-842.139,558.872-835.57,552.302-835.57,544.197"/>
	</g>
</g>
</svg>
