<svg xmlns="http://www.w3.org/2000/svg" width="119" height="80" viewBox="0 0 119 80">
    <g fill="none" fill-rule="evenodd">
        <path fill="#D6D6D6" d="M0 79.888L33.838 40h51.324L119 79.888z"/>
        <path fill="#FFF" d="M57.581 64.444h4.113v15.278h-4.113zM57.581 40.833h4.113v15.278h-4.113z"/>
        <g fill-rule="nonzero">
            <path fill="#555" d="M40.025 60H37.35a4.019 4.019 0 0 1-4.025-4.012V44.384H44.05v11.604A4.019 4.019 0 0 1 40.025 60zM82.65 60h-2.675a4.019 4.019 0 0 1-4.025-4.012V44.384h10.725v11.604A4.019 4.019 0 0 1 82.65 60zM91.72 28.22H87.87a1.7 1.7 0 0 0-1.635 1.256l-.936 3.4h6.42c.707 0 1.28-.58 1.28-1.296v-2.064c0-.716-.573-1.297-1.28-1.297zM28.28 28.22h3.849a1.7 1.7 0 0 1 1.635 1.256l.936 3.4h-6.42c-.707 0-1.28-.58-1.28-1.296v-2.064c0-.716.573-1.297 1.28-1.297z"/>
            <path fill="#ADADAD" d="M68.206 0H52.069c-.784 0-1.419.637-1.419 1.423v2.634c0 .785.635 1.422 1.419 1.422h16.137c.784 0 1.419-.637 1.419-1.422V1.423C69.625.637 68.99 0 68.206 0z"/>
            <path fill="#888" d="M71.693 5.205H48.307A2.06 2.06 0 0 0 46.25 7.27v3.818c0 1.14.92 2.064 2.057 2.064h23.386a2.06 2.06 0 0 0 2.057-2.064V7.269a2.06 2.06 0 0 0-2.057-2.064z"/>
            <path fill="#555" d="M86.062 32.304l-4.442-17.23a2.484 2.484 0 0 0-2.421-1.923H40.801a2.483 2.483 0 0 0-2.421 1.923l-4.442 17.23c-.108.47-.385.884-.777 1.166l-2.208 1.585a4.862 4.862 0 0 0-2.028 3.95v7.7a4.532 4.532 0 0 0 4.536 4.528h53.078a4.532 4.532 0 0 0 4.536-4.529v-7.7a4.862 4.862 0 0 0-2.028-3.949l-2.208-1.585a1.986 1.986 0 0 1-.777-1.166z"/>
            <path fill="#FFF" d="M81.983 33.254l-3.856-14.652a1.442 1.442 0 0 0-1.4-1.068H43.274c-.659 0-1.234.44-1.4 1.068l-3.856 14.652c-.159 1.254.832 2.362 2.113 2.362h39.74c1.28 0 2.272-1.108 2.113-2.362z"/>
            <path fill="#EFF6FE" d="M41.14 45.205h-5.73c-.848 0-1.535-.667-1.535-1.49v-3.046c0-.823.687-1.49 1.535-1.49h5.73c.848 0 1.535.667 1.535 1.49v3.045c0 .824-.687 1.491-1.535 1.491zM84.59 45.205h-5.73c-.848 0-1.535-.667-1.535-1.49v-3.046c0-.823.687-1.49 1.535-1.49h5.73c.848 0 1.535.667 1.535 1.49v3.045c0 .824-.687 1.491-1.535 1.491z"/>
            <path fill="#FFF" d="M71.109 40.822H49.166c-.547 0-.991-.43-.991-.959 0-.53.444-.959.991-.959H71.11c.547 0 .991.43.991.959 0 .53-.444.959-.991.959zM68.078 44.932H51.647c-.55 0-.997-.43-.997-.96s.446-.958.997-.958h16.431c.551 0 .997.429.997.959 0 .529-.446.959-.997.959z"/>
            <g fill="#555">
                <path d="M54.38 24.556c0 2.19-1.745 3.964-3.899 3.964s-3.9-1.775-3.9-3.964c0-2.19 1.746-3.964 3.9-3.964s3.9 1.775 3.9 3.964zM73.419 24.556c0 2.19-1.746 3.964-3.9 3.964s-3.9-1.775-3.9-3.964c0-2.19 1.746-3.964 3.9-3.964s3.9 1.775 3.9 3.964zM62.735 26.484c0 1.462-1.166 2.648-2.605 2.648s-2.605-1.186-2.605-2.648c0-1.463 1.166-2.648 2.605-2.648s2.605 1.185 2.605 2.648z"/>
            </g>
            <path fill="#D6D6D6" d="M78.7 35.616c-.123-1.683-1.588-3.013-3.378-3.013H44.953c-1.79 0-3.255 1.33-3.378 3.013H78.7z"/>
            <path fill="#555" d="M75.125 32.603c-.524-2.353-2.596-4.11-5.074-4.11h-1.127c-2.478 0-4.55 1.757-5.074 4.11h11.275zM63.85 32.603v-.416c0-1.889-1.555-3.42-3.474-3.42h-.752c-1.919 0-3.474 1.531-3.474 3.42v.416h7.7zM56.15 32.603c-.524-2.353-2.596-4.11-5.074-4.11H49.95c-2.478 0-4.55 1.757-5.074 4.11H56.15z"/>
        </g>
    </g>
</svg>
