<?xml version="1.0" encoding="utf-8"?>
<!-- Generator: Adobe Illustrator 16.0.0, SVG Export Plug-In . SVG Version: 6.00 Build 0)  -->
<!DOCTYPE svg PUBLIC "-//W3C//DTD SVG 1.1//EN" "http://www.w3.org/Graphics/SVG/1.1/DTD/svg11.dtd">
<svg version="1.1" id="Layer_1" xmlns="http://www.w3.org/2000/svg" xmlns:xlink="http://www.w3.org/1999/xlink" x="0px" y="0px"
	 width="6.571px" height="12px" viewBox="0 0 6.571 12" enable-background="new 0 0 6.571 12" xml:space="preserve">
<path fill="#CCCCCC" d="M6.257,0.314C6.047,0.105,5.794,0,5.5,0H4.143H2.429H1.071C0.777,0,0.524,0.105,0.315,0.314
	C0.105,0.524,0,0.777,0,1.071v9.857c0,0.294,0.105,0.546,0.315,0.756C0.524,11.895,0.777,12,1.071,12H5.5
	c0.294,0,0.547-0.105,0.757-0.315c0.209-0.21,0.314-0.462,0.314-0.756V1.071C6.571,0.777,6.466,0.524,6.257,0.314z M2.536,0.556h1.5
	c0.146,0,0.266,0.119,0.266,0.266S4.182,1.087,4.036,1.087h-1.5c-0.146,0-0.266-0.119-0.266-0.266S2.389,0.556,2.536,0.556z
	 M5.714,10.929c0,0.058-0.021,0.108-0.063,0.15c-0.042,0.042-0.093,0.063-0.151,0.063H1.071c-0.058,0-0.108-0.021-0.15-0.063
	c-0.042-0.042-0.064-0.093-0.064-0.15V1.714h4.857V10.929z"/>
<g>
	<g>
		<path fill="#CCCCCC" d="M4.239,4.236c0,0.056-0.017,0.109-0.052,0.16c-0.035,0.051-0.078,0.095-0.13,0.131
			c-0.267,0.185-0.432,0.3-0.498,0.346C3.552,4.878,3.537,4.889,3.514,4.906s-0.042,0.03-0.057,0.04
			C3.441,4.957,3.423,4.968,3.401,4.98C3.379,4.994,3.359,5.003,3.34,5.009S3.303,5.019,3.287,5.019H3.286H3.284
			c-0.016,0-0.034-0.003-0.053-0.009S3.192,4.994,3.17,4.98C3.148,4.968,3.13,4.957,3.115,4.946C3.1,4.936,3.081,4.922,3.058,4.906
			S3.019,4.878,3.012,4.873c-0.064-0.045-0.157-0.11-0.279-0.194C2.612,4.595,2.54,4.544,2.515,4.527
			C2.472,4.498,2.43,4.456,2.391,4.404c-0.039-0.052-0.058-0.1-0.058-0.145c0-0.055,0.015-0.101,0.044-0.138
			c0.029-0.037,0.071-0.056,0.125-0.056h1.566c0.046,0,0.085,0.017,0.119,0.05C4.222,4.149,4.239,4.189,4.239,4.236z M4.239,4.549
			v0.844c0,0.047-0.017,0.087-0.05,0.121c-0.033,0.033-0.073,0.05-0.12,0.05H2.502c-0.046,0-0.087-0.017-0.12-0.05
			C2.349,5.48,2.333,5.44,2.333,5.393V4.549C2.363,4.583,2.4,4.614,2.44,4.641c0.257,0.175,0.433,0.297,0.529,0.367
			c0.04,0.03,0.073,0.053,0.099,0.07c0.024,0.016,0.058,0.033,0.101,0.051c0.042,0.017,0.081,0.026,0.116,0.026h0.001h0.001
			c0.036,0,0.075-0.009,0.116-0.026c0.042-0.018,0.076-0.035,0.101-0.051c0.025-0.017,0.059-0.04,0.099-0.07
			C3.723,4.921,3.9,4.799,4.132,4.641C4.173,4.614,4.208,4.583,4.239,4.549z"/>
	</g>
	<g>
		<path fill="#CCCCCC" d="M2.469,7.935H1.946c-0.021,0-0.038-0.017-0.038-0.038s0.017-0.038,0.038-0.038h0.523
			c0.021,0,0.038,0.017,0.038,0.038S2.49,7.935,2.469,7.935z"/>
		<path fill="#CCCCCC" d="M3.221,7.935H2.698c-0.021,0-0.038-0.017-0.038-0.038s0.017-0.038,0.038-0.038h0.523
			c0.021,0,0.039,0.017,0.039,0.038S3.243,7.935,3.221,7.935z"/>
		<path fill="#CCCCCC" d="M3.974,7.935H3.451c-0.021,0-0.038-0.017-0.038-0.038S3.43,7.858,3.451,7.858h0.523
			c0.021,0,0.038,0.017,0.038,0.038S3.995,7.935,3.974,7.935z"/>
		<path fill="#CCCCCC" d="M4.727,7.935H4.204c-0.021,0-0.038-0.017-0.038-0.038s0.017-0.038,0.038-0.038h0.523
			c0.021,0,0.038,0.017,0.038,0.038S4.748,7.935,4.727,7.935z"/>
		<g>
			<path fill="#CCCCCC" d="M2.239,7.653H2.05V6.941C1.981,7.005,1.9,7.053,1.807,7.084V6.913c0.049-0.016,0.103-0.047,0.16-0.091
				c0.058-0.045,0.097-0.099,0.119-0.158h0.153V7.653z"/>
			<path fill="#CCCCCC" d="M3.159,7.477v0.176H2.497c0.007-0.067,0.028-0.129,0.065-0.188c0.036-0.06,0.106-0.139,0.211-0.236
				C2.859,7.149,2.912,7.095,2.93,7.067c0.026-0.04,0.039-0.078,0.039-0.115c0-0.043-0.011-0.075-0.034-0.097
				C2.913,6.832,2.881,6.82,2.842,6.82S2.771,6.832,2.748,6.856c-0.024,0.023-0.037,0.063-0.04,0.118L2.52,6.955
				C2.53,6.852,2.565,6.777,2.625,6.731c0.059-0.045,0.133-0.068,0.222-0.068c0.097,0,0.174,0.026,0.229,0.079
				C3.131,6.794,3.159,6.86,3.159,6.938c0,0.044-0.008,0.086-0.024,0.126C3.119,7.105,3.094,7.146,3.059,7.19
				C3.036,7.22,2.996,7.262,2.936,7.316C2.876,7.37,2.838,7.407,2.822,7.425C2.807,7.443,2.793,7.46,2.783,7.477H3.159z"/>
			<path fill="#CCCCCC" d="M3.28,7.392l0.183-0.022c0.006,0.046,0.022,0.082,0.047,0.107C3.535,7.5,3.566,7.513,3.602,7.513
				c0.04,0,0.072-0.015,0.099-0.044c0.026-0.03,0.04-0.07,0.04-0.12c0-0.047-0.013-0.085-0.038-0.113
				C3.676,7.208,3.646,7.194,3.609,7.194c-0.024,0-0.053,0.005-0.086,0.014l0.021-0.154c0.051,0.001,0.09-0.01,0.117-0.033
				C3.687,6.998,3.7,6.966,3.7,6.928c0-0.033-0.009-0.06-0.029-0.08c-0.02-0.02-0.046-0.029-0.079-0.029
				c-0.033,0-0.06,0.011-0.083,0.034C3.487,6.875,3.473,6.908,3.468,6.951l-0.174-0.03c0.012-0.06,0.03-0.107,0.055-0.143
				c0.023-0.036,0.058-0.064,0.102-0.084c0.043-0.021,0.092-0.031,0.147-0.031c0.093,0,0.167,0.03,0.223,0.089
				C3.867,6.801,3.89,6.855,3.89,6.917c0,0.086-0.047,0.155-0.142,0.206c0.057,0.013,0.102,0.04,0.135,0.082
				s0.051,0.093,0.051,0.153c0,0.086-0.032,0.16-0.095,0.221C3.776,7.639,3.697,7.669,3.603,7.669c-0.088,0-0.163-0.026-0.221-0.077
				C3.323,7.541,3.289,7.475,3.28,7.392z"/>
			<path fill="#CCCCCC" d="M4.422,7.653V7.454H4.019V7.289l0.427-0.625h0.158v0.625h0.122v0.166H4.604v0.199H4.422z M4.422,7.288
				V6.952L4.195,7.288H4.422z"/>
		</g>
	</g>
</g>
</svg>