<svg width="70" height="70" viewBox="0 0 70 70" fill="none" xmlns="http://www.w3.org/2000/svg">
<circle cx="35" cy="35" r="35" fill="#EB2227"/>
<path d="M35.4044 38.7523C35.4044 39.363 35.4044 39.9047 35.4044 40.4563C36.5977 40.4169 37.8797 40.0426 38.5997 41.2541C39.3886 41.2344 40.0987 41.1557 40.8087 41.2049C41.5779 41.264 42.0612 41.786 42.3176 42.3672C43.0178 42.3672 43.6588 42.3179 44.2801 42.377C45.2663 42.4657 45.9763 43.2438 45.9763 44.2288C45.9862 48.1489 46.0355 52.079 45.9665 55.9992C45.9073 59.289 43.077 61.9582 39.7732 61.9681C38.1263 61.9681 36.4794 62.0567 34.8423 61.9385C32.2092 61.7514 30.2861 60.3232 28.8561 58.1661C27.6628 56.3636 27.1303 54.3543 27.1204 52.207C27.1007 50.0401 27.1204 47.8732 27.1106 45.7062C27.1106 45.5289 27.1106 45.3516 27.1106 45.1448C28.4025 44.9872 29.5662 45.1546 30.6115 46.0608C30.6115 43.5984 30.6115 41.2147 30.6115 38.7622C30.4242 38.7622 30.2368 38.7622 30.0395 38.7622C27.5741 38.7622 25.1086 38.7819 22.6431 38.7425C20.7102 38.7129 19.0041 37.0286 19.0041 35.1079C18.9942 29.4345 19.0041 23.7709 19.0139 18.1073C19.0139 18.0482 19.0238 17.9793 19.0435 17.8611C20.3059 17.8611 21.5583 17.8611 22.8601 17.8611C22.8601 16.5511 22.8601 15.2903 22.8601 14C31.9232 14 40.9369 14 50 14C50 14.2265 50 14.4137 50 14.6107C50 21.3282 50 28.0358 50 34.7533C50 37.0483 48.4418 38.7031 46.144 38.7425C42.7712 38.7917 39.4083 38.7622 36.0356 38.7622C35.8482 38.7523 35.651 38.7523 35.4044 38.7523ZM24.4478 15.5661C24.4478 15.7631 24.4478 15.9108 24.4478 16.0586C24.4478 21.7714 24.4478 27.4843 24.4478 33.1971C24.4478 33.5221 24.4281 33.857 24.369 34.1722C24.2999 34.5465 24.083 34.7829 23.6589 34.773C23.2348 34.773 23.0277 34.5169 22.9488 34.1525C22.8897 33.8669 22.8798 33.5615 22.8798 33.2759C22.8798 28.8435 22.8798 24.4111 22.8798 19.9788C22.8798 19.8015 22.8798 19.634 22.8798 19.4567C22.0909 19.4567 21.3611 19.4567 20.5918 19.4567C20.5918 19.7325 20.5918 19.9788 20.5918 20.225C20.5918 22.2442 20.5918 24.2634 20.5918 26.2826C20.5918 29.139 20.5918 31.9954 20.6017 34.8518C20.6017 36.0437 21.0948 36.7627 22.1698 37.1271C22.4557 37.2256 22.7812 37.2847 23.0869 37.2847C25.4833 37.2946 27.8896 37.2847 30.2861 37.2847C30.6411 37.2847 30.7397 37.137 30.72 36.8021C30.7003 36.2308 30.7101 35.6497 30.72 35.0784C30.7299 33.7684 31.3512 32.8819 32.4557 32.5864C33.6095 32.2811 34.8127 32.8326 35.1184 33.9752C35.3354 34.7632 35.3156 35.6201 35.3551 36.4475C35.3945 37.3044 35.365 37.3044 36.2131 37.1862C36.361 37.1665 36.5089 37.1764 36.6569 37.1764C39.7634 37.1764 42.8699 37.1862 45.9763 37.1764C47.4951 37.1764 48.4418 36.2209 48.4418 34.7139C48.4418 28.5086 48.4418 22.3033 48.4418 16.098C48.4418 15.9207 48.4418 15.7532 48.4418 15.5563C40.4044 15.5661 32.4557 15.5661 24.4478 15.5661ZM28.7082 46.8192C28.7082 48.7892 28.649 50.7296 28.7279 52.6601C28.8167 54.8566 29.5563 56.8364 31.0948 58.4517C32.288 59.7027 33.7476 60.4118 35.5129 60.3921C36.9133 60.3823 38.3038 60.3921 39.7042 60.3921C42.3176 60.3921 44.4083 58.3138 44.4182 55.7135C44.428 53.8716 44.428 52.0396 44.428 50.1977C44.428 48.3065 44.4182 46.4252 44.428 44.5341C44.428 44.0909 44.2702 43.884 43.8265 43.9136C43.6983 43.9234 43.5602 43.9136 43.432 43.9136C43.0474 43.9037 42.86 44.0712 42.8699 44.475C42.8896 45.1349 42.8896 45.785 42.8699 46.4449C42.8501 47.1049 42.4951 47.4398 41.8442 47.4299C41.2328 47.4201 40.9073 47.0852 40.9073 46.4252C40.8975 45.4107 40.9073 44.3864 40.9073 43.3718C40.9073 42.8104 40.7989 42.7316 40.0691 42.7316C39.4281 42.7316 39.3393 42.8104 39.3294 43.362C39.3294 44.3174 39.3294 45.263 39.3294 46.2184C39.3294 47.0753 39.0434 47.4299 38.3334 47.4299C37.6529 47.4299 37.3571 47.0753 37.3571 46.2578C37.3571 45.0463 37.3571 43.8249 37.3571 42.6134C37.3571 42.0323 37.2486 41.9436 36.5977 41.9436C35.8975 41.9436 35.7989 42.0224 35.7989 42.6134C35.7989 43.8742 35.8087 45.1448 35.7989 46.4055C35.7989 47.0753 35.4537 47.4201 34.8127 47.4299C34.1618 47.4299 33.8265 47.0852 33.8364 46.3563C33.8462 42.5839 33.866 38.8114 33.8758 35.039C33.8758 34.4184 33.5602 34.0245 33.0671 34.0146C32.5543 34.0146 32.2092 34.4283 32.219 35.0587C32.2289 36.1914 32.2585 37.3241 32.2585 38.447C32.2585 42.7809 32.2585 47.1147 32.2585 51.4486C32.2585 52.1676 31.9232 52.5419 31.3019 52.5419C30.651 52.5419 30.2959 52.1578 30.2959 51.4289C30.2959 50.5424 30.3058 49.6559 30.2959 48.7695C30.2466 47.8239 29.6155 47.0064 28.7082 46.8192Z" fill="white"/>
<path d="M46 19C46 19.3333 46 19.6601 46 20C39.6764 20 33.343 20 27 20C27 19.6601 27 19.3399 27 19C33.343 19 39.657 19 46 19Z" fill="white"/>
<path d="M27 25C27 24.3072 27 23.6797 27 23C28.6758 23 30.3242 23 32 23C32 23.6667 32 24.3072 32 25C30.3333 25 28.694 25 27 25Z" fill="white"/>
<path d="M27 28C27 27.6579 27 27.3487 27 27C28.6606 27 30.312 27 32 27C32 27.3289 32 27.6513 32 28C30.3394 28 28.6971 28 27 28Z" fill="white"/>
<path d="M46 29C46 29.6753 46 30.3117 46 31C44.3394 31 42.6881 31 41 31C41 30.3377 41 29.6883 41 29C42.6697 29 44.3211 29 46 29Z" fill="white"/>
<path d="M32 31C30.3242 31 28.6758 31 27 31C27 30.3247 27 29.6883 27 29C28.6667 29 30.315 29 32 29C32 29.6494 32 30.2857 32 31Z" fill="white"/>
<path d="M34 25C34 24.3158 34 23.6842 34 23C35.6575 23 37.3059 23 39 23C39 23.6316 39 24.2895 39 25C37.3516 25 35.7033 25 34 25Z" fill="white"/>
<path d="M46 23C46 23.6883 46 24.3247 46 25C44.3242 25 42.6758 25 41 25C41 24.3247 41 23.6883 41 23C42.6667 23 44.315 23 46 23Z" fill="white"/>
<path d="M34 28C34 27.6558 34 27.3312 34 27C35.6728 27 37.318 27 39 27C39 27.3312 39 27.6558 39 28C37.3456 28 35.682 28 34 28Z" fill="white"/>
<path d="M46 27C46 27.3442 46 27.6623 46 28C44.3242 28 42.6758 28 41 28C41 27.6623 41 27.3442 41 27C42.6575 27 44.315 27 46 27Z" fill="white"/>
<path d="M39 30C39 30.3333 39 30.6536 39 31C37.3333 31 35.6758 31 34 31C34 30.6667 34 30.3464 34 30C35.6667 30 37.3242 30 39 30Z" fill="white"/>
</svg>
