<svg xmlns="http://www.w3.org/2000/svg" width="41" height="59" viewBox="0 0 41 59">
    <g fill="none" fill-rule="evenodd">
        <path d="M-10 0h60v60h-60z"/>
        <path d="M-.25 0H41v60H-.25z"/>
        <path fill="#35495E" d="M34.373 31.238c2.294-3.65 3.75-6.854 4.37-9.611.618-2.758.794-6.417.529-10.976-.03-.34-.099-.587-.208-.742-.11-.154-.356-.35-.739-.588-3.92-1.24-6.798-2.342-8.633-3.305-1.834-.963-4.43-2.734-7.79-5.314C21.352.234 20.929 0 20.634 0c-.294 0-.728.234-1.302.702-2.713 2.187-5.01 3.794-6.89 4.82-1.879 1.025-4.766 2.235-8.662 3.627-.633.17-1.044.335-1.234.498-.19.163-.332.497-.427 1.004-.672 4.04-.53 7.699.427 10.976.956 3.276 2.354 6.48 4.195 9.611 3.287 3.981 7.832 5.972 13.634 5.972 5.802 0 10.469-1.99 13.998-5.972z"/>
        <path fill="#FFF" d="M31.758 29.6c1.86-2.958 3.04-5.553 3.542-7.788.502-2.234.645-5.198.43-8.892-.024-.276-.08-.476-.169-.601-.09-.125-.289-.284-.599-.477-3.18-1.005-5.513-1.898-7-2.678-1.488-.78-3.594-2.215-6.318-4.306-.446-.379-.788-.568-1.027-.568-.24 0-.591.19-1.057.568-2.2 1.773-4.062 3.074-5.586 3.906-1.524.83-3.866 1.81-7.025 2.939-.513.137-.846.271-1 .403-.155.132-.27.403-.346.814-.545 3.273-.43 6.237.345 8.892.776 2.655 1.91 5.25 3.402 7.788 1.278 1.82 4.285 2.73 9.02 2.73 4.734 0 9.197-.91 13.388-2.73z"/>
        <path fill="#00B241" d="M29.725 15.173L18.85 26.455c-.7.727-1.835.727-2.533 0l-4.543-4.711a1.912 1.912 0 0 1 0-2.63 1.747 1.747 0 0 1 2.533 0l3.276 3.4 9.609-9.969a1.744 1.744 0 0 1 2.533 0c.7.725.7 1.901 0 2.628"/>
        <path fill="#FFF" d="M14.219 28.145h13.028a7.333 7.333 0 0 1 6.398 3.75 2.52 2.52 0 0 1-2.198 3.75H9.637a2.465 2.465 0 0 1-2.104-3.75 7.834 7.834 0 0 1 6.686-3.75z"/>
        <g transform="translate(.5 29.258)">
            <rect width="36.769" height="14.849" x="1.548" y="10.009" fill="#35495E" rx="7"/>
            <path fill="#FFF" d="M35.34 18.31c1.53-1.186 2.267-3.116 1.549-3.966-.72-.85-2.68-.319-4.43.478-1.75.796-2.329 1.741-1.601 3.207.728 1.466 2.954 1.466 4.483.28zM4.509 18.31c-1.53-1.186-2.267-3.116-1.548-3.966.719-.85 2.68-.319 4.43.478 1.75.796 2.328 1.741 1.6 3.207-.727 1.466-2.953 1.466-4.482.28z"/>
            <rect width="4.596" height="2.2" y="7.5" fill="#35495E" rx="1.1"/>
            <rect width="4.596" height="2.2" x="35.25" y="7.5" fill="#35495E" rx="1.1"/>
            <path fill="#35495E" d="M5.326 9.458h29.239c.31 0 .383-.186.222-.558-.1-.23-1.306-2.817-2.617-5.004-.875-1.459-1.405-2.539-2.069-2.992-.664-.452-1.53-.613-2.893-.684C23.68.035 16.352.035 12.211.204c-1.265.052-1.955.603-2.105.7-.216.14-1.142.894-1.861 1.997C6.725 5.235 4.997 8.8 4.906 9.077c-.089.272.051.399.42.38zM7.765 25.495v.927a2.758 2.758 0 1 1-5.515 0V23.25c1.15.933 2.047 1.53 2.692 1.792.645.261 1.586.413 2.823.453zM32.25 25.495v.927a2.758 2.758 0 1 0 5.515 0V23.25c-1.15.933-2.047 1.53-2.692 1.792-.645.261-1.586.413-2.823.453z"/>
        </g>
        <g fill="#FFF" transform="translate(4.635 40.712)">
            <rect width="26.542" height="1.09" x="2.591" y="1.812" rx=".545"/>
            <path d="M1.271.614l1.82 1.247c.25.17.336.498.204.77a.453.453 0 0 1-.663.175L.812 1.559a.609.609 0 0 1-.204-.77.453.453 0 0 1 .663-.175zM30.369.61l-1.82 1.246a.609.609 0 0 0-.204.77.453.453 0 0 0 .663.175l1.82-1.247a.609.609 0 0 0 .204-.769.453.453 0 0 0-.663-.175z"/>
        </g>
        <g fill="#FFF" transform="matrix(1 0 0 -1 6.818 52.712)">
            <rect width="26.542" height="1" x=".293" y="2.178" rx=".5"/>
            <path d="M25.909.665V2.62a.46.46 0 1 0 .92 0V.665a.46.46 0 1 0-.92 0zM.286.79v1.955a.46.46 0 1 0 .92 0L1.204.79a.46.46 0 1 0-.92 0z"/>
        </g>
    </g>
</svg>
