<?xml version="1.0" encoding="utf-8"?>
<!-- Generator: Adobe Illustrator 16.0.0, SVG Export Plug-In . SVG Version: 6.00 Build 0)  -->
<!DOCTYPE svg PUBLIC "-//W3C//DTD SVG 1.1//EN" "http://www.w3.org/Graphics/SVG/1.1/DTD/svg11.dtd">
<svg version="1.1" id="Layer_1" xmlns="http://www.w3.org/2000/svg" xmlns:xlink="http://www.w3.org/1999/xlink" x="0px" y="0px"
	 width="9.082px" height="2.933px" viewBox="123.459 39.868 9.082 2.933" enable-background="new 123.459 39.868 9.082 2.933"
	 xml:space="preserve">
<path fill="#FFFFFF" d="M128.156,40.805c-0.005,0.409,0.364,0.636,0.643,0.772c0.285,0.139,0.381,0.229,0.38,0.353
	c-0.002,0.19-0.228,0.274-0.439,0.277c-0.369,0.006-0.583-0.1-0.753-0.179l-0.132,0.621c0.171,0.079,0.487,0.148,0.815,0.151
	c0.771,0,1.275-0.381,1.278-0.971c0.003-0.749-1.036-0.79-1.028-1.125c0.002-0.102,0.099-0.21,0.311-0.237
	c0.105-0.014,0.396-0.025,0.724,0.126l0.129-0.601c-0.176-0.064-0.403-0.126-0.687-0.126
	C128.671,39.868,128.16,40.253,128.156,40.805 M131.322,39.919c-0.141,0-0.26,0.082-0.313,0.208l-1.101,2.629h0.77l0.153-0.425
	h0.941l0.089,0.425h0.679l-0.593-2.837H131.322 M131.43,40.686l0.223,1.065h-0.609L131.43,40.686 M127.222,39.919l-0.607,2.837
	h0.734l0.607-2.837H127.222 M126.137,39.919l-0.764,1.931l-0.309-1.642c-0.036-0.183-0.179-0.289-0.338-0.289h-1.249l-0.018,0.083
	c0.256,0.056,0.548,0.145,0.724,0.241c0.108,0.059,0.139,0.11,0.174,0.249l0.585,2.265h0.776l1.189-2.837H126.137"/>
</svg>
