<svg xmlns="http://www.w3.org/2000/svg" width="82" height="80" viewBox="0 0 82 80">
    <g fill="none" fill-rule="nonzero">
        <path fill="#555" d="M70.69 0H4.243C1.9 0 0 1.91 0 4.265V54h82V4.265C82 1.91 80.1 0 77.757 0H70.69z"/>
        <path fill="#D6D6D6" d="M4 6h71v46H4z"/>
        <path fill="#EFF6FE" d="M19 12v27h33.16L58 33.029V12z"/>
        <path fill="#555" d="M77.757 63H4.243C1.9 63 0 61.152 0 58.874V52h82v6.874C82 61.152 80.1 63 77.757 63z"/>
        <path fill="#FFF" d="M45.625 58h-8.25C36.616 58 36 57.552 36 57s.616-1 1.375-1h8.25c.759 0 1.375.448 1.375 1s-.616 1-1.375 1z"/>
        <path fill="#555" d="M60.134 80H22.867C21.283 80 20 78.434 20 76.5s1.283-3.5 2.867-3.5h37.266C61.717 73 63 74.566 63 76.5S61.717 80 60.134 80zM48.546 62H34.455c0 6.08-2.224 11-8.455 11h31c-6.23 0-8.454-4.92-8.454-11z"/>
        <path fill="#35495E" d="M65 41.887l-4.375-4.403a.194.194 0 0 1 0-.274l2.827-2.846L49 30l4.336 14.545 2.754-2.772a.44.44 0 0 1 .625 0L60.913 46 65 41.887z"/>
        <path fill="#888" d="M19 11h39v8H19z"/>
        <path fill="#EC676B" d="M24 26h11v7H24z"/>
    </g>
</svg>
