<svg id="Layer_1" data-name="Layer 1" xmlns="http://www.w3.org/2000/svg" xmlns:xlink="http://www.w3.org/1999/xlink" viewBox="0 0 618 147.1"><defs><style>.cls-1{fill:#bfbfbf;}.cls-2,.cls-6,.cls-9{fill:#eb2227;}.cls-14,.cls-21,.cls-3{fill:#fff;}.cls-4{fill:#e0e0e0;}.cls-10,.cls-5{fill:#a3a3a3;}.cls-12,.cls-13,.cls-14,.cls-15,.cls-16,.cls-17,.cls-18,.cls-19,.cls-20,.cls-21,.cls-5,.cls-9{fill-rule:evenodd;}.cls-6{fill-opacity:0.1;}.cls-7{fill:#ffdad1;}.cls-8{fill:#20aeae;}.cls-11,.cls-13{fill:#a6a6a6;}.cls-15{fill:url(#linear-gradient);}.cls-16{fill:url(#linear-gradient-2);}.cls-17{fill:url(#linear-gradient-3);}.cls-18{fill:url(#linear-gradient-4);}.cls-19{opacity:0.2;}.cls-19,.cls-20,.cls-21{isolation:isolate;}.cls-20{opacity:0.12;}.cls-21{opacity:0.25;}.cls-22{fill:#10b111;}.cls-23{opacity:0.13;}.cls-24{fill:#7f7f7f;}</style><linearGradient id="linear-gradient" x1="145.67" y1="-125.81" x2="138.37" y2="-127.75" gradientTransform="matrix(1, 0, 0, -1, 0, -51.2)" gradientUnits="userSpaceOnUse"><stop offset="0" stop-color="#00a0ff"/><stop offset="0.01" stop-color="#00a1ff"/><stop offset="0.26" stop-color="#00beff"/><stop offset="0.51" stop-color="#00d2ff"/><stop offset="0.76" stop-color="#00dfff"/><stop offset="1" stop-color="#00e3ff"/></linearGradient><linearGradient id="linear-gradient-2" x1="149.34" y1="-127.11" x2="140.44" y2="-127.11" gradientTransform="matrix(1, 0, 0, -1, 0, -51.2)" gradientUnits="userSpaceOnUse"><stop offset="0" stop-color="#ffe000"/><stop offset="0.41" stop-color="#ffbd00"/><stop offset="0.78" stop-color="orange"/><stop offset="1" stop-color="#ff9c00"/></linearGradient><linearGradient id="linear-gradient-3" x1="145.37" y1="-127.57" x2="139.47" y2="-137.45" gradientTransform="matrix(1, 0, 0, -1, 0, -51.2)" gradientUnits="userSpaceOnUse"><stop offset="0" stop-color="#ff3a44"/><stop offset="1" stop-color="#c31162"/></linearGradient><linearGradient id="linear-gradient-4" x1="140.83" y1="-119.05" x2="143.46" y2="-123.46" gradientTransform="matrix(1, 0, 0, -1, 0, -51.2)" gradientUnits="userSpaceOnUse"><stop offset="0" stop-color="#32a071"/><stop offset="0.07" stop-color="#2da771"/><stop offset="0.48" stop-color="#15cf74"/><stop offset="0.8" stop-color="#06e775"/><stop offset="1" stop-color="#00f076"/></linearGradient></defs><path class="cls-1" d="M17,23.68v8.09a1.5,1.5,0,0,0,3,0V13.07c7.65-.31,11.68-4.29,11.68-11.57A1.5,1.5,0,0,0,30.17,0C23.33,0,17,1.4,17,11.59v.64C13.61,8.42,7.76,8,1.5,8A1.5,1.5,0,0,0,0,9.46C0,15.74,3,23.19,17,23.68ZM28.6,3c-.47,4.58-3.17,6.8-8.55,7C20.48,4.66,23.35,3.24,28.6,3ZM17,20.68C8.25,20.35,3.69,17.17,3.07,11,12.12,11.14,16.47,12.85,17,20.68Z"/><path class="cls-1" d="M64.06,49.29a23.88,23.88,0,0,0-1.59-7.92.14.14,0,0,0,0-.06c-2.2-6-11.27-25.38-36.53-25.38a1.5,1.5,0,0,0,0,3,38.75,38.75,0,0,1,10.44,1.35c-.16.32-.34.65-.52,1C33.86,25,31.16,30,33.56,36c2.52,6.29,14,6.75,23.23,7.11l3.17.14a20.22,20.22,0,0,1,1.1,6c0,3.62-.4,5-2.87,5.31a7.86,7.86,0,0,0-15.69.09H24.22a7.87,7.87,0,0,0-15.7-.14A5,5,0,0,1,6.3,53.34C4.84,52,4.06,49.66,4.06,46.63A54.17,54.17,0,0,1,7.69,28a1.5,1.5,0,0,0-2.82-1A57.17,57.17,0,0,0,1.06,46.63c0,4.9,1.74,7.55,3.2,8.91a7.92,7.92,0,0,0,4.66,2.12,7.86,7.86,0,0,0,14.88,0H42.91a7.86,7.86,0,0,0,14.89,0C63.55,57.22,64.06,53.3,64.06,49.29ZM56.9,40.16c-7.47-.3-18.76-.75-20.56-5.23-1.88-4.71.35-8.89,2.14-12.24.28-.52.54-1,.77-1.48,11.57,4.33,17.2,13.77,19.53,19ZM16.37,60a4.87,4.87,0,1,1,4.87-4.87A4.88,4.88,0,0,1,16.37,60Zm34,0a4.87,4.87,0,1,1,4.87-4.87A4.88,4.88,0,0,1,50.35,60Z"/><path class="cls-1" d="M538.63,26.93,524.05,15.64a15.52,15.52,0,0,0-9.49-3.25H469.63a27.18,27.18,0,0,0-7.2,1,1.5,1.5,0,0,0-1.3.39,27.48,27.48,0,0,0-6.08,2.82l-8.39,5.24-15.84,1.8a6.5,6.5,0,0,0-5.77,6.46V42.44a9.51,9.51,0,0,0,9.5,9.5h2.73a12.27,12.27,0,0,0,11.27,7.45,12.12,12.12,0,0,0,4.23-.77,13.06,13.06,0,0,0,4.4.77,12.72,12.72,0,0,0,11.7-7.45h67.76a12.26,12.26,0,0,0,11.27,7.45,12.12,12.12,0,0,0,4.23-.77,13,13,0,0,0,4.39.77,12.72,12.72,0,0,0,11.72-7.47,6.51,6.51,0,0,0,6-6.48V38.26C574.28,28,556.19,27.43,538.63,26.93ZM522.21,18l11.5,8.91H508.19V15.39h6.37A12.55,12.55,0,0,1,522.21,18Zm-39.79,8.91V15.39h22.77V26.92Zm-3-11.53V26.92H463.58c-1.23,0-2.31,0-3.3,0l3.05-10.68a24.64,24.64,0,0,1,6.3-.83Zm-22.78,3.72a24.23,24.23,0,0,1,3.23-1.69l-2.66,9.32a12.94,12.94,0,0,1-7.53-3.28Zm-17.34,28a9.25,9.25,0,1,1,13.15,8.38,1.5,1.5,0,0,0-.65.27,9.23,9.23,0,0,1-12.5-8.65Zm17.88,9.25c-.2,0-.4,0-.59,0a12.34,12.34,0,0,0,3.23-4.42h5.66A9.79,9.79,0,0,1,457.18,56.39Zm81.48-9.25a9.25,9.25,0,1,1,13.14,8.38,1.51,1.51,0,0,0-.64.27,9.23,9.23,0,0,1-12.5-8.65Zm17.87,9.25-.58,0a12.46,12.46,0,0,0,3.23-4.42h5.66A9.79,9.79,0,0,1,556.53,56.39Zm11.25-7.45H560a11.92,11.92,0,0,0,.15-1.8,12.25,12.25,0,1,0-24.5,0,11.92,11.92,0,0,0,.15,1.8H460.65a11.92,11.92,0,0,0,.15-1.8,12.25,12.25,0,1,0-24.5,0,11.92,11.92,0,0,0,.15,1.8h-1.9a6.51,6.51,0,0,1-6.5-6.5V37h4.12a1.5,1.5,0,0,0,0-3h-4.12V30.07a3.5,3.5,0,0,1,3.1-3.48l15.52-1.76c5.74,5.09,9.1,5.09,16.91,5.09h73.11a1.37,1.37,0,0,1,1.36,0h.29c13.61.39,30.29.87,32.65,6.84h-4.78a1.5,1.5,0,0,0,0,3h5.07v5.68A3.5,3.5,0,0,1,567.78,48.94Z"/><path class="cls-1" d="M531.06,38.63H465a1.5,1.5,0,0,0,0,3h66.08a1.5,1.5,0,0,0,0-3Z"/><path class="cls-1" d="M198.23,31.53A90.62,90.62,0,0,0,159.51,19c-18-9.2-28.89-11.06-40.57-11.06s-17.23,2-24.14,4.41l-1.5.53-.51.18L77.55.35a1.48,1.48,0,0,0-1-.35H68.21a1.5,1.5,0,0,0,0,3h7.84L89.43,14.16a51.14,51.14,0,0,1-15,2.6H70.56a6.51,6.51,0,0,0-6.5,6.5V47.44a8.51,8.51,0,0,0,8.5,8.5h7.5A13,13,0,0,0,91.59,63a12.76,12.76,0,0,0,4.51-.83,13.79,13.79,0,0,0,4.69.83,13.51,13.51,0,0,0,12-7.06h46.68A13,13,0,0,0,171,63a12.72,12.72,0,0,0,4.51-.83,13.79,13.79,0,0,0,4.69.83,13.48,13.48,0,0,0,12.12-7.21C197,55.15,199,52.4,199,46.94V32.82A1.49,1.49,0,0,0,198.23,31.53ZM196,37.89c-4.8-.22-8-1.56-9.5-4H196ZM67.06,26a8.93,8.93,0,0,1,6.34,4H67.06ZM81.62,50a10,10,0,1,1,14.15,9,1.49,1.49,0,0,0-.66.28A10,10,0,0,1,81.62,50Zm19.17,10c-.29,0-.58,0-.87,0a13,13,0,0,0,3.2-4h6.08A10.6,10.6,0,0,1,100.79,60ZM161,50a10,10,0,1,1,14.16,9,1.48,1.48,0,0,0-.67.28A10,10,0,0,1,161,50ZM180.2,60c-.29,0-.58,0-.87,0a13,13,0,0,0,3.2-4h6.14A10.63,10.63,0,0,1,180.2,60ZM190,52.94h-6.34A12.73,12.73,0,0,0,184,50,13,13,0,0,0,158,50a13.31,13.31,0,0,0,.34,2.91H104.22a12.73,12.73,0,0,0,.34-2.91,13,13,0,0,0-25.94,0A13.31,13.31,0,0,0,79,52.94h-6.4a5.51,5.51,0,0,1-5.5-5.5V33h8.65a1.5,1.5,0,0,0,1.43-1.95,11.72,11.72,0,0,0-10-8,3.49,3.49,0,0,1,3.47-3.25h3.83c5.4,0,11.32-1.14,18.53-3.58l.07,0,1.31-.45,1.51-.54c6.64-2.36,11.88-4.23,23.13-4.23,11.58,0,21.75,1.78,39.47,10.87A1.56,1.56,0,0,0,159,22a85.55,85.55,0,0,1,31.72,8.91h-6.46a1.51,1.51,0,0,0-1.46,1.87c.89,3.55,3.93,7.74,13.19,8.15v5.86h-5.56a1.5,1.5,0,0,0,0,3h5.31C195.16,52.19,193.55,52.94,190,52.94Z"/><path class="cls-1" d="M159.78,25.31C143.68,17.06,133.27,14.65,123,14.2a1.62,1.62,0,0,0-.49-.08,1.58,1.58,0,0,0-.38.05c-1,0-2.09-.05-3.15-.05-8.68,0-15.6,2.3-21.7,4.34a79.19,79.19,0,0,1-7.74,2.31,1.48,1.48,0,0,0-1.08,1,1.5,1.5,0,0,0,.22,1.43c3.59,4.61,13.25,5,23.69,5h46.76a1.5,1.5,0,0,0,.69-2.84ZM93.13,22.93c1.64-.48,3.32-1,5.06-1.62,5.89-2,12.56-4.19,20.75-4.19l2,0v8h-8.64C105.05,25.15,97.23,25,93.13,22.93ZM124,25.15V17.26c8.4.47,16.74,2.35,28.65,7.89Z"/><path class="cls-1" d="M153.36,46.76H108.8a1.5,1.5,0,0,0,0,3h44.56a1.5,1.5,0,0,0,0-3Z"/><path class="cls-1" d="M312.44,15.44H295.92l-7.6-7.6c-4.69-4.68-8.73-7.4-15.52-7.4H221.37c-6.52,0-6.82.3-14.46,7.94S199,16.32,199,21.76V43.19c0,5.78,3,9,8.67,9.48a12.18,12.18,0,0,0,16.41,10,11.94,11.94,0,0,0,4.28.79,12.21,12.21,0,0,0,12.11-10.71h20.78a12.17,12.17,0,0,0,16.4,9.92,12,12,0,0,0,4.28.79,12.21,12.21,0,0,0,9.64-4.73,12.15,12.15,0,0,0,13.93,3.94,12,12,0,0,0,4.29.79,12.23,12.23,0,0,0,12.15-11c2.11-.61,4.35-2.48,4.35-7.66V28.73C326.26,22.58,320.22,15.44,312.44,15.44Zm-14,17.14a6.51,6.51,0,0,1-6.5-6.5v-.14h7.72v6.64Zm4.22-6.64h20a8.2,8.2,0,0,1,.53,2.79v3.85H302.69ZM272.8,3.44c5.78,0,9.17,2.29,13.4,6.53l5.48,5.47H271.27L261,5.17a24,24,0,0,0-1.88-1.73Zm-34.4,0h9.75c6,0,7.75.87,10.73,3.85L267,15.44H238.4Zm0,15h74a11.14,11.14,0,0,1,8.61,4.5H290.47a1.5,1.5,0,0,0-1.5,1.5v1.64a9.52,9.52,0,0,0,9.5,9.5h24.79v4.5H290.88a20.8,20.8,0,0,0-35.1,0H244.83V36.23a1.5,1.5,0,0,0-.44-1.06l-6-6Zm-14.63-15H235.4v12H215.63ZM209,10.5c6.47-6.46,7-7,11.11-7L211.56,16.1a1.47,1.47,0,0,0-.09,1.54,1.51,1.51,0,0,0,1.33.8h22.6V29.8a1.5,1.5,0,0,0,.44,1.06l6,6v3.23h-4.52a20.8,20.8,0,0,0-35.1,0H202V31.3h2.25a1.48,1.48,0,0,0,1.2-.6l4.83-6.43a1.5,1.5,0,0,0-1.2-2.4H202v-.11C202,17.56,202,17.56,209,10.5ZM202,24.87h4.08l-2.58,3.43H202Zm8.58,26.36a9.21,9.21,0,1,1,9.21,9.21A9.23,9.23,0,0,1,210.55,51.23Zm17.78,9.21-.55,0a12.14,12.14,0,0,0,4.09-7.68h5.54A9.21,9.21,0,0,1,228.33,60.44Zm3.54-10.71a12.2,12.2,0,0,0-24.21-.07c-4-.35-5.69-2.34-5.69-6.47v-.11h1.08a1.49,1.49,0,0,0,1.3-.75,17.8,17.8,0,0,1,30.82,0,1.49,1.49,0,0,0,1.3.75h5.36v6.65Zm32.25,1.5a9.22,9.22,0,1,1,9.21,9.21A9.23,9.23,0,0,1,264.12,51.23Zm17.78,9.21-.54,0a12.17,12.17,0,0,0,4.08-7.68H291A9.21,9.21,0,0,1,281.9,60.44Zm11.32-4.63a12.69,12.69,0,0,0,.8-3.08h16.25a9.19,9.19,0,0,1-17,3.08Zm16.54,4.63-.55,0a12.14,12.14,0,0,0,4.09-7.68h5.54A9.21,9.21,0,0,1,309.76,60.44Zm10.18-10.71h-34.5a12.2,12.2,0,0,0-24.22,0H244.83V43.08h11.8a1.5,1.5,0,0,0,1.3-.75,17.79,17.79,0,0,1,30.81,0,1.49,1.49,0,0,0,1.3.75h33.22V44.8C323.26,49.73,321,49.73,319.94,49.73Z"/><path class="cls-1" d="M250.19,23.37a1.5,1.5,0,0,0-1.5-1.5h-5.36a1.5,1.5,0,1,0,0,3h5.36A1.5,1.5,0,0,0,250.19,23.37Z"/><path class="cls-1" d="M423,23,404.3,3.41a7.5,7.5,0,0,0-5.42-2.33H333.76a7.51,7.51,0,0,0-7.5,7.5V45a7.5,7.5,0,0,0,7.5,7.5h.94a12,12,0,0,0,24,0h32.84a12,12,0,0,0,24,0h2a7.5,7.5,0,0,0,7.5-7.5V28.15A7.5,7.5,0,0,0,423,23Zm-.93,13.9h-4.82a1.66,1.66,0,0,1,0-3.31h4.82ZM388.21,12.5h20.63L420,24.24H388.21Zm-3,11.74h-47a.5.5,0,0,1-.5-.5V13a.51.51,0,0,1,.5-.5h47ZM329.26,45V34.61h4.82a1.5,1.5,0,0,0,0-3h-4.82v-23a4.51,4.51,0,0,1,4.5-4.5h65.12a4.49,4.49,0,0,1,3.25,1.4l3.85,4h-67.8a3.51,3.51,0,0,0-3.5,3.5V23.74a3.5,3.5,0,0,0,3.5,3.5h47V49.5H358.46a12,12,0,0,0-23.5,0h-1.2A4.5,4.5,0,0,1,329.26,45Zm17.45,16.08a9,9,0,1,1,9-9A9,9,0,0,1,346.71,61.08Zm56.84,0a9,9,0,1,1,9-9A9,9,0,0,1,403.55,61.08Zm14-11.58H415.3a12,12,0,0,0-23.5,0h-3.59V27.24H422a4.6,4.6,0,0,1,.09.91v2.41h-4.82a4.66,4.66,0,0,0,0,9.31h4.82v3.32h-3.76a1.5,1.5,0,0,0,0,3h3.58A4.49,4.49,0,0,1,417.55,49.5Z"/><path class="cls-1" d="M398.29,31.61h-4.21a1.5,1.5,0,0,0,0,3h4.21a1.5,1.5,0,0,0,0-3Z"/><path class="cls-2" d="M581.6,45.41a3.9,3.9,0,0,1,1.76,1.49,4.32,4.32,0,0,1,.63,2.35,4.27,4.27,0,0,1-1.21,3.16,4.31,4.31,0,0,1-3.12,1.18,4.37,4.37,0,0,1-3.16-1.22,4.19,4.19,0,0,1-1.22-3.12,7.39,7.39,0,0,1,.22-1.8,19.35,19.35,0,0,1,1-2.72l2.62-6.5h4.47Zm10.66,0A3.85,3.85,0,0,1,594,46.9a4.67,4.67,0,0,1-.58,5.51,4.31,4.31,0,0,1-3.12,1.18,4.37,4.37,0,0,1-3.16-1.22,4.19,4.19,0,0,1-1.22-3.12,7.39,7.39,0,0,1,.22-1.8,20.74,20.74,0,0,1,1-2.72l2.62-6.5h4.47Z"/><circle class="cls-3" cx="606.72" cy="45.91" r="11.1"/><path class="cls-4" d="M606.72,57.19A11.28,11.28,0,1,1,618,45.91,11.29,11.29,0,0,1,606.72,57.19Zm0-22.21a10.93,10.93,0,1,0,10.93,10.93A10.94,10.94,0,0,0,606.72,35Z"/><path class="cls-5" d="M602.61,41.21v1.17h8.22V41.21h-8.22Zm3.52,2.94h0l.58-.59,3.33,3.32-.83.83-1.91-1.91v4.81h-1.18v-4.8l-1.9,1.9-.83-.83Z"/><path class="cls-3" d="M610,27.88v-.54h-.56v3.24H610V29a1.12,1.12,0,0,1,.27-.81,1,1,0,0,1,.75-.29h.14v-.57a1.76,1.76,0,0,0-.73.14A1,1,0,0,0,610,27.88Z"/><path class="cls-3" d="M606.72,28a1.24,1.24,0,0,1,.58-.14,1.06,1.06,0,0,1,.5.12,1,1,0,0,1,.38.35l.45-.29a1.21,1.21,0,0,0-.54-.51,1.67,1.67,0,0,0-.79-.18,1.82,1.82,0,0,0-.88.21,1.57,1.57,0,0,0-.61.59,1.71,1.71,0,0,0-.22.85,1.77,1.77,0,0,0,.22.86,1.62,1.62,0,0,0,.61.58,1.72,1.72,0,0,0,.88.22,1.67,1.67,0,0,0,.79-.18,1.35,1.35,0,0,0,.54-.52l-.45-.28a1.06,1.06,0,0,1-.38.35,1.18,1.18,0,0,1-.5.11,1.13,1.13,0,0,1-.58-.14.94.94,0,0,1-.39-.4,1.16,1.16,0,0,1-.14-.6,1.15,1.15,0,0,1,.14-.59A1,1,0,0,1,606.72,28Z"/><path class="cls-3" d="M604.37,28.42a6.23,6.23,0,0,0-.78-.24A4.26,4.26,0,0,1,603,28a1.07,1.07,0,0,1-.36-.21.46.46,0,0,1-.15-.36.59.59,0,0,1,.26-.49,1.28,1.28,0,0,1,.78-.19,2.08,2.08,0,0,1,.6.09,2,2,0,0,1,.57.26l.21-.49a2,2,0,0,0-.63-.28,2.76,2.76,0,0,0-.75-.1,2.21,2.21,0,0,0-.91.17,1.17,1.17,0,0,0-.55.44,1.07,1.07,0,0,0-.18.61,1,1,0,0,0,.21.66,1.3,1.3,0,0,0,.51.35,5,5,0,0,0,.78.23l.59.17a1,1,0,0,1,.36.21.45.45,0,0,1,.14.36.54.54,0,0,1-.26.48,1.4,1.4,0,0,1-.79.18,2.35,2.35,0,0,1-.79-.14,1.83,1.83,0,0,1-.63-.36l-.22.48a1.86,1.86,0,0,0,.7.39,2.94,2.94,0,0,0,.94.15,2.25,2.25,0,0,0,.91-.16,1.27,1.27,0,0,0,.56-.44,1.12,1.12,0,0,0,.18-.62.93.93,0,0,0-.21-.64A1.23,1.23,0,0,0,604.37,28.42Z"/><rect class="cls-3" x="615.7" y="26.04" width="0.59" height="4.54"/><rect class="cls-3" x="617.41" y="26.04" width="0.59" height="4.54"/><path class="cls-3" d="M614.07,27.52a1.74,1.74,0,0,0-.86-.21,1.81,1.81,0,0,0-.87.21,1.55,1.55,0,0,0-.6.59,1.61,1.61,0,0,0-.22.85,1.67,1.67,0,0,0,.22.86,1.59,1.59,0,0,0,.6.58,1.71,1.71,0,0,0,.87.22,1.64,1.64,0,0,0,.86-.22,1.52,1.52,0,0,0,.6-.58,1.67,1.67,0,0,0,.22-.86,1.61,1.61,0,0,0-.22-.85A1.48,1.48,0,0,0,614.07,27.52Zm.09,2a1.09,1.09,0,0,1-1.9,0,1.21,1.21,0,0,1-.14-.6,1.15,1.15,0,0,1,.14-.59,1,1,0,0,1,.39-.41,1.19,1.19,0,0,1,1.12,0,1,1,0,0,1,.39.41,1.25,1.25,0,0,1,.14.59A1.33,1.33,0,0,1,614.16,29.56Z"/><path class="cls-3" d="M610.05,0A5.11,5.11,0,0,0,605,5.1v5.09a5.1,5.1,0,0,0,10.2,0V5.1A5.11,5.11,0,0,0,610.05,0Zm4.08,10.19a4.08,4.08,0,0,1-8.16,0V5.1a4.08,4.08,0,0,1,8.16,0Z"/><polygon class="cls-3" points="612.57 17.81 611.85 17.09 610.05 18.89 608.25 17.09 607.53 17.81 610.05 20.34 612.57 17.81"/><path class="cls-3" d="M610.05,3.06a2,2,0,1,0,2,2A2,2,0,0,0,610.05,3.06Zm0,3.06a1,1,0,1,1,1-1A1,1,0,0,1,610.05,6.12Z"/><path class="cls-6" d="M43.31,139.16a33.69,33.69,0,1,0-33.7-33.69A33.7,33.7,0,0,0,43.31,139.16Z"/><path class="cls-3" d="M56.65,111.31s3.23,2.11,2.3,8.11-2.07,9.94-1.11,17.43A25.34,25.34,0,0,1,40,139.73C42.39,126.67,56.65,111.31,56.65,111.31Z"/><path class="cls-2" d="M55.65,120.76A29.76,29.76,0,0,0,75,100.06s-16.6-1.31-23.37,13.44Z"/><path class="cls-7" d="M41.16,143.77s-.31-9.41,7.23-13.33,10.41-7.11,10.76-13.67a6.7,6.7,0,0,0-2.46-5.42l-14.15,3.76Z"/><path class="cls-3" d="M66.45,83.85A3.84,3.84,0,1,0,62.61,80,3.84,3.84,0,0,0,66.45,83.85Z"/><path d="M66.45,84.11a4.1,4.1,0,1,1,4.1-4.1A4.11,4.11,0,0,1,66.45,84.11Zm0-7.69A3.59,3.59,0,1,0,70,80,3.59,3.59,0,0,0,66.45,76.42Z"/><path d="M65.87,81.51a.39.39,0,0,1-.27-.12l-1.11-1.11a.38.38,0,1,1,.54-.54l.84.85,2-2a.38.38,0,0,1,.54.54l-2.27,2.26A.36.36,0,0,1,65.87,81.51Z"/><path class="cls-8" d="M28,101.63c.69-.88,4.11-5.49,3.69-8.64-.66-5-6.85-3.8-6.23,1.15a19.65,19.65,0,0,0,2.11,7.15,83.77,83.77,0,0,0-8.53-6.15c4-4.87,3.61-10.6,1.85-12.1s-5.62-.49-4.85,4.42a20.7,20.7,0,0,0,2.65,7.45,75.59,75.59,0,0,0-8.49-4.57,15.15,15.15,0,0,0-4.65-6.26C.77,80.16-2.77,87.81,3,89.61a18.94,18.94,0,0,0,6.92,1,76.64,76.64,0,0,1,8.64,4.65C17.18,95.14,13,95,9.76,96.83c-3.88,2.23-2.42,6.26,1.42,6.07s6.38-4.26,7.69-7.41a81.94,81.94,0,0,1,8.72,6.3c-1.38,0-7.22.19-9.41,3.65-2.5,3.91,1.23,5.68,4.38,4s4.65-6,5.26-7.49l.2.19a.12.12,0,0,0,.11,0,.25.25,0,0,0,.15-.08.18.18,0,0,0,0-.27Z"/><path class="cls-7" d="M50.92,85.46s2-4.8,2.88-7.75.31-5.27-2.07-5.27-3.34,3.15-3.34,3.15"/><path d="M50.92,85.85a.32.32,0,0,1-.14,0,.38.38,0,0,1-.21-.5s2-4.82,2.87-7.73c.55-1.76.52-3.23-.08-4a1.89,1.89,0,0,0-1.63-.72c-2.08,0-3,2.85-3,2.88a.38.38,0,1,1-.73-.23c0-.14,1.07-3.42,3.71-3.42a2.66,2.66,0,0,1,2.25,1c.75,1,.82,2.7.19,4.72-.92,2.94-2.88,7.74-2.9,7.79A.38.38,0,0,1,50.92,85.85Z"/><path d="M54.8,112.69,38,117a3.06,3.06,0,0,1-3.73-2.18L23.4,73a3.06,3.06,0,0,1,2.19-3.72l16.84-4.34a3.06,3.06,0,0,1,3.73,2.19L57,109A3,3,0,0,1,54.8,112.69Z"/><path d="M37.21,117.51a3.47,3.47,0,0,1-3.34-2.57L23,73.08a3.45,3.45,0,0,1,2.46-4.19l16.83-4.34A3.45,3.45,0,0,1,46.52,67l10.84,41.86a3.39,3.39,0,0,1-2.46,4.19L38.07,117.4A3.22,3.22,0,0,1,37.21,117.51Zm6-52.31a2.57,2.57,0,0,0-.67.09L25.69,69.63a2.69,2.69,0,0,0-1.92,3.26l10.84,41.86a2.7,2.7,0,0,0,3.27,1.92l16.83-4.34h0a2.67,2.67,0,0,0,1.92-3.27L45.79,67.2A2.7,2.7,0,0,0,43.19,65.2Z"/><path class="cls-3" d="M54.36,110.82l-16.84,4.34A3,3,0,0,1,33.8,113L23.42,72.88a3.07,3.07,0,0,1,2.19-3.73l16.83-4.34A3.07,3.07,0,0,1,46.17,67l10.38,40.1A3,3,0,0,1,54.36,110.82Z"/><path d="M36.77,115.89a3.72,3.72,0,0,1-3.59-2.75L22.8,73a3.71,3.71,0,0,1,2.65-4.5L42.28,64.2a3.71,3.71,0,0,1,4.5,2.64l10.38,40.1a3.66,3.66,0,0,1-2.65,4.5l-16.83,4.34A3.54,3.54,0,0,1,36.77,115.89ZM43.2,65.35a2.47,2.47,0,0,0-.6.08L25.77,69.77a2.43,2.43,0,0,0-1.74,3l10.38,40.1a2.44,2.44,0,0,0,3,1.73l16.83-4.34h0a2.4,2.4,0,0,0,1.73-2.95L45.56,67.16A2.45,2.45,0,0,0,43.2,65.35Z"/><path class="cls-9" d="M41.28,94.59a4.75,4.75,0,0,0,3.33-2.89l1.33-.31a5.9,5.9,0,1,1-1.2-5.17l-1.33.31a4.72,4.72,0,1,0-2.13,8.06Zm-4-6.65,2.58-.6a2.69,2.69,0,0,1,2,.34,2.62,2.62,0,0,1,1.18,1.65,2.65,2.65,0,0,1-2,3.18l-2.59.6Zm4.06,3.22a1.37,1.37,0,0,0,.4-.43h0a1.49,1.49,0,0,0,.23-.85,1.45,1.45,0,0,0-.28-.83,1.5,1.5,0,0,0-.7-.54,1.52,1.52,0,0,0-.87-.06l-1.48.34.68,3,1.48-.35A1.32,1.32,0,0,0,41.38,91.16Z"/><path d="M24.13,78.53a.63.63,0,0,1-.61-.47L23.1,76.4a.63.63,0,0,1,.45-.77.65.65,0,0,1,.78.46l.42,1.65a.63.63,0,0,1-.46.77A.41.41,0,0,1,24.13,78.53Z"/><path d="M25.32,83.14a.63.63,0,0,1-.61-.48l-.36-1.41c-.13-.47-.25-1-.37-1.44a.63.63,0,0,1,1.23-.29l.36,1.4c.13.47.25,1,.37,1.44a.63.63,0,0,1-.47.76A.39.39,0,0,1,25.32,83.14Z"/><path d="M26.75,88.67a.62.62,0,0,1-.61-.47c-.18-.63-.34-1.27-.51-1.9s-.32-1.27-.49-1.9a.63.63,0,0,1,.44-.78.64.64,0,0,1,.78.45c.17.64.34,1.27.5,1.91s.33,1.26.5,1.89a.64.64,0,0,1-.45.78Z"/><path d="M50.42,81.76a.64.64,0,0,1-.61-.47c-.17-.64-.34-1.28-.5-1.91s-.33-1.26-.5-1.89a.64.64,0,0,1,.45-.78.65.65,0,0,1,.78.45c.17.63.33,1.26.5,1.9s.32,1.26.49,1.9a.63.63,0,0,1-.44.78Z"/><path d="M38.58,67.76,30.4,69.87a1.36,1.36,0,0,1-1.65-1l-.08-.27a.15.15,0,0,1,.11-.19l10.5-2.72a.14.14,0,0,1,.19.11l.08.27A1.34,1.34,0,0,1,38.58,67.76Z"/><path d="M30.07,70.3A1.76,1.76,0,0,1,28.38,69l-.07-.24a.49.49,0,0,1,.05-.45.5.5,0,0,1,.36-.24l10.44-2.72a.5.5,0,0,1,.44.06.5.5,0,0,1,.24.35l.07.23a1.84,1.84,0,0,1-.21,1.44,1.57,1.57,0,0,1-1,.73l-8.18,2.11A1.52,1.52,0,0,1,30.07,70.3Zm-1-1.58v0a1,1,0,0,0,1.19.73l8.19-2.11h0a.9.9,0,0,0,.55-.39,1.11,1.11,0,0,0,.12-.84l0,0Zm-.32.07ZM39.45,66Zm-.36-.23Z"/><path class="cls-3" d="M39.12,147.07s-1.92-13.56-5.3-17.67a17.66,17.66,0,0,1-6.27-6,15,15,0,0,1-1.84-11.79c1-4.23,1.11-4.88,1.5-6.69s.31-3.11,3.38-5.1a58.5,58.5,0,0,1,6.15-3.5c1.5-.84,2.73-.11,3.34,2s-.61,4.53-4.95,7.26l-.35,6.07s6.92,1.3,9.42,11.67"/><path class="cls-3" d="M31.78,68.73a.13.13,0,0,1,0-.25l5-1.3a.12.12,0,0,1,.15.09.12.12,0,0,1-.09.15l-5,1.31Z"/><path class="cls-3" d="M43.54,114.32a.13.13,0,0,1-.12-.1.12.12,0,0,1,.09-.15l5-1.27a.13.13,0,0,1,.15.09.13.13,0,0,1-.09.16l-5,1.27Z"/><path class="cls-7" d="M46.08,122a17.53,17.53,0,0,0-3.23-6.69,11.18,11.18,0,0,0-6-4l.34-5.57c4.27-2.5,5.42-4.72,4.84-6.64s-1.8-2.58-3.26-1.81a64.78,64.78,0,0,0-6,3.23c-3,1.84-3,3-3.3,4.68S29,107.47,28,111.35a12.81,12.81,0,0,0,1.8,10.79,16.6,16.6,0,0,0,6.11,5.46c3.31,3.76,5.19,16.17,5.19,16.17s-.31-9.41,7.23-13.33"/><path class="cls-7" d="M57.88,96.33a14.46,14.46,0,0,0-5,7.19c-1.3,4.57,4.38,5.91,5.38,2.84S61.38,102,62,100.1s2-7.42-8.68-5.61l1.26,5"/><path d="M55.8,108.39a3.63,3.63,0,0,1-1-.15c-1.68-.52-3-2.21-2.28-4.83a13.34,13.34,0,0,1,1.74-3.72.22.22,0,0,1,0-.11l-1.27-5a.36.36,0,0,1,.05-.3.39.39,0,0,1,.25-.17c4.38-.74,7.29-.33,8.65,1.22s.71,4.08.47,4.88a8.22,8.22,0,0,1-1.53,2.49,11.78,11.78,0,0,0-2.2,3.78A2.8,2.8,0,0,1,55.8,108.39ZM57.88,96a.38.38,0,0,1,.31.16.39.39,0,0,1-.09.54,14.09,14.09,0,0,0-4.89,7c-.65,2.27.55,3.51,1.77,3.89a2.2,2.2,0,0,0,2.88-1.27,12.62,12.62,0,0,1,2.33-4,7.62,7.62,0,0,0,1.4-2.24c.21-.7.86-2.82-.31-4.16s-3.67-1.64-7.54-1l1,4.1A14.45,14.45,0,0,1,57.66,96,.44.44,0,0,1,57.88,96Z"/><path class="cls-7" d="M59,89.54c0-2.19-1.65-3.38-3.76-3.38s-5.27,1.76-4.46,5.33C51.58,95.57,59,94.91,59,89.54Z"/><path d="M54.33,94.51a3.83,3.83,0,0,1-4-2.94,4.42,4.42,0,0,1,.79-3.88,5.35,5.35,0,0,1,4-1.91c2.48,0,4.14,1.51,4.14,3.76a4.79,4.79,0,0,1-4.44,4.94Zm.86-8a4.65,4.65,0,0,0-3.45,1.62,3.66,3.66,0,0,0-.64,3.25,3.22,3.22,0,0,0,3.71,2.31,4,4,0,0,0,3.76-4.18C58.57,87.71,57.24,86.54,55.19,86.54Z"/><path d="M39,147.1a.38.38,0,0,1-.37-.33c0-.13-1.84-13-5.09-17.07a18,18,0,0,1-6.34-6.06,15.26,15.26,0,0,1-1.89-12.07c.83-3.51,1.05-4.53,1.32-5.84l.18-.83c0-.16.05-.31.08-.47.28-1.6.53-3,3.46-4.88a48,48,0,0,1,5.12-3L36.56,96a2.4,2.4,0,0,1,2.1-.25,3.51,3.51,0,0,1,1.79,2.43c.73,2.47-.94,5-5,7.59l-.31,5.55c1.44.41,7.14,2.56,9.39,11.88a.38.38,0,0,1-.28.46.37.37,0,0,1-.46-.28c-2.41-10-9-11.38-9.12-11.39a.37.37,0,0,1-.31-.39l.35-6.07a.35.35,0,0,1,.17-.3c3.82-2.4,5.43-4.7,4.8-6.83a2.81,2.81,0,0,0-1.34-1.94,1.66,1.66,0,0,0-1.45.2l-1.08.56a48,48,0,0,0-5.05,2.93c-2.66,1.72-2.86,2.84-3.13,4.37l-.09.49-.18.84c-.27,1.31-.49,2.34-1.32,5.86a14.58,14.58,0,0,0,1.8,11.51,17.48,17.48,0,0,0,6.11,5.8.4.4,0,0,1,.12.1c3.41,4.14,5.23,17,5.3,17.5a.38.38,0,0,1-.32.43Z"/><path d="M57.84,137.23a.39.39,0,0,1-.38-.33,43.25,43.25,0,0,1,.62-14.55c.17-1,.34-1.94.5-3,.87-5.65-2-7.65-2.14-7.73a.39.39,0,0,1-.11-.53.39.39,0,0,1,.53-.11c.14.1,3.42,2.32,2.47,8.48-.16,1.06-.33,2-.49,3a42.2,42.2,0,0,0-.62,14.32.39.39,0,0,1-.33.43Z"/><path d="M59.34,144.11a.38.38,0,0,1-.37-.28c-.61-2.1-1.11-4.34-1.12-4.36a.38.38,0,0,1,.75-.17s.5,2.24,1.1,4.32a.37.37,0,0,1-.26.47Z"/><path d="M3.73,78.61a.26.26,0,0,1-.26-.25v-.19a.26.26,0,0,1,.26-.26.26.26,0,0,1,.25.26v.19A.25.25,0,0,1,3.73,78.61Z"/><path d="M3.73,94a.26.26,0,0,1-.26-.25v-.21a.23.23,0,0,0,0-.26V93a.23.23,0,0,0,0-.26V92.5a.33.33,0,0,1,0-.14.28.28,0,0,1,0-.13V92a.25.25,0,0,1,0-.13.33.33,0,0,1,0-.14v-.26a.28.28,0,0,1,0-.13.33.33,0,0,1,0-.13v-.27a.23.23,0,0,0,0-.26v-.27a.33.33,0,0,1,0-.13.28.28,0,0,1,0-.13v-.26a.33.33,0,0,1,0-.14.25.25,0,0,1,0-.13v-.26a.25.25,0,0,1,0-.13.33.33,0,0,1,0-.14V88.8a.23.23,0,0,0,0-.26v-.27a.23.23,0,0,0,0-.26v-.26a.33.33,0,0,1,0-.14.28.28,0,0,1,0-.13v-.26a.25.25,0,0,1,0-.13.33.33,0,0,1,0-.14v-.26a.28.28,0,0,1,0-.13.33.33,0,0,1,0-.13v-.27a.23.23,0,0,0,0-.26v-.27a.33.33,0,0,1,0-.13.28.28,0,0,1,0-.13v-.26a.33.33,0,0,1,0-.14.25.25,0,0,1,0-.13v-.26a.28.28,0,0,1,0-.13.33.33,0,0,1,0-.14v-.26a.23.23,0,0,0,0-.26v-.27a.23.23,0,0,0,0-.26V83a.33.33,0,0,1,0-.14.28.28,0,0,1,0-.13v-.26a.25.25,0,0,1,0-.13.33.33,0,0,1,0-.14v-.26a.28.28,0,0,1,0-.13.33.33,0,0,1,0-.13v-.27a.23.23,0,0,0,0-.26v-.27a.33.33,0,0,1,0-.13.28.28,0,0,1,0-.13v-.26a.26.26,0,0,1,.26-.26.26.26,0,0,1,.25.26v.26a.2.2,0,0,1,0,.13.22.22,0,0,1,0,.13v.27a.23.23,0,0,0,0,.26v.27a.22.22,0,0,1,0,.13.2.2,0,0,1,0,.13v.26a.23.23,0,0,1,0,.14.18.18,0,0,1,0,.13v.26a.2.2,0,0,1,0,.13A.23.23,0,0,1,4,83v.26a.23.23,0,0,0,0,.26v.27a.23.23,0,0,0,0,.26v.26a.23.23,0,0,1,0,.14.2.2,0,0,1,0,.13v.26a.18.18,0,0,1,0,.13.23.23,0,0,1,0,.14v.26a.2.2,0,0,1,0,.13.22.22,0,0,1,0,.13v.27a.23.23,0,0,0,0,.26v.27a.22.22,0,0,1,0,.13.2.2,0,0,1,0,.13V87a.23.23,0,0,1,0,.14.18.18,0,0,1,0,.13v.26a.2.2,0,0,1,0,.13.23.23,0,0,1,0,.14V88a.23.23,0,0,0,0,.26v.27a.23.23,0,0,0,0,.26v.26a.23.23,0,0,1,0,.14.18.18,0,0,1,0,.13v.26a.18.18,0,0,1,0,.13.23.23,0,0,1,0,.14v.26a.2.2,0,0,1,0,.13.22.22,0,0,1,0,.13v.27a.23.23,0,0,0,0,.26v.27a.22.22,0,0,1,0,.13.2.2,0,0,1,0,.13v.26a.23.23,0,0,1,0,.14A.18.18,0,0,1,4,92v.26a.2.2,0,0,1,0,.13.23.23,0,0,1,0,.14v.26A.23.23,0,0,0,4,93v.27a.23.23,0,0,0,0,.26v.21A.25.25,0,0,1,3.73,94Z"/><path d="M3.73,95.2A.26.26,0,0,1,3.47,95v-.19a.26.26,0,0,1,.26-.25.25.25,0,0,1,.25.25V95A.25.25,0,0,1,3.73,95.2Z"/><path d="M5.92,78.61a.26.26,0,0,1-.26-.25v-.19a.26.26,0,0,1,.26-.26.26.26,0,0,1,.25.26v.19A.25.25,0,0,1,5.92,78.61Z"/><path d="M5.92,94a.26.26,0,0,1-.26-.25v-.21a.23.23,0,0,0,0-.26V93a.23.23,0,0,0,0-.26V92.5a.33.33,0,0,1,0-.14.28.28,0,0,1,0-.13V92a.25.25,0,0,1,0-.13.33.33,0,0,1,0-.14v-.26a.28.28,0,0,1,0-.13.33.33,0,0,1,0-.13v-.27a.23.23,0,0,0,0-.26v-.27a.33.33,0,0,1,0-.13.28.28,0,0,1,0-.13v-.26a.33.33,0,0,1,0-.14.25.25,0,0,1,0-.13v-.26a.25.25,0,0,1,0-.13.33.33,0,0,1,0-.14V88.8a.23.23,0,0,0,0-.26v-.27a.23.23,0,0,0,0-.26v-.26a.33.33,0,0,1,0-.14.28.28,0,0,1,0-.13v-.26a.25.25,0,0,1,0-.13.33.33,0,0,1,0-.14v-.26a.28.28,0,0,1,0-.13.33.33,0,0,1,0-.13v-.27a.23.23,0,0,0,0-.26v-.27a.33.33,0,0,1,0-.13.28.28,0,0,1,0-.13v-.26a.33.33,0,0,1,0-.14.25.25,0,0,1,0-.13v-.26a.28.28,0,0,1,0-.13.33.33,0,0,1,0-.14v-.26a.23.23,0,0,0,0-.26v-.27a.23.23,0,0,0,0-.26V83a.33.33,0,0,1,0-.14.28.28,0,0,1,0-.13v-.26a.25.25,0,0,1,0-.13.33.33,0,0,1,0-.14v-.26a.28.28,0,0,1,0-.13.33.33,0,0,1,0-.13v-.27a.23.23,0,0,0,0-.26v-.27a.33.33,0,0,1,0-.13.28.28,0,0,1,0-.13v-.26a.26.26,0,0,1,.26-.26.26.26,0,0,1,.25.26v.26a.2.2,0,0,1,0,.13.22.22,0,0,1,0,.13v.27a.23.23,0,0,0,0,.26v.27a.22.22,0,0,1,0,.13.2.2,0,0,1,0,.13v.26a.23.23,0,0,1,0,.14.18.18,0,0,1,0,.13v.26a.2.2,0,0,1,0,.13.23.23,0,0,1,0,.14v.26a.23.23,0,0,0,0,.26v.27a.23.23,0,0,0,0,.26v.26a.23.23,0,0,1,0,.14.2.2,0,0,1,0,.13v.26a.18.18,0,0,1,0,.13.23.23,0,0,1,0,.14v.26a.2.2,0,0,1,0,.13.22.22,0,0,1,0,.13v.27a.23.23,0,0,0,0,.26v.27a.22.22,0,0,1,0,.13.2.2,0,0,1,0,.13V87a.23.23,0,0,1,0,.14.18.18,0,0,1,0,.13v.26a.2.2,0,0,1,0,.13.23.23,0,0,1,0,.14V88a.23.23,0,0,0,0,.26v.27a.23.23,0,0,0,0,.26v.26a.23.23,0,0,1,0,.14.18.18,0,0,1,0,.13v.26a.18.18,0,0,1,0,.13.23.23,0,0,1,0,.14v.26a.2.2,0,0,1,0,.13.22.22,0,0,1,0,.13v.27a.23.23,0,0,0,0,.26v.27a.22.22,0,0,1,0,.13.2.2,0,0,1,0,.13v.26a.23.23,0,0,1,0,.14.18.18,0,0,1,0,.13v.26a.2.2,0,0,1,0,.13.23.23,0,0,1,0,.14v.26a.23.23,0,0,0,0,.26v.27a.23.23,0,0,0,0,.26v.21A.25.25,0,0,1,5.92,94Z"/><path d="M5.92,95.2A.26.26,0,0,1,5.66,95v-.19a.26.26,0,0,1,.26-.25.25.25,0,0,1,.25.25V95A.25.25,0,0,1,5.92,95.2Z"/><path d="M6.72,132a.33.33,0,0,1-.13,0,.25.25,0,0,1-.08-.35L11.12,124a.26.26,0,0,1,.35-.09.25.25,0,0,1,.08.35l-4.61,7.68A.26.26,0,0,1,6.72,132Z"/><path class="cls-8" d="M76.25,128.63l4.27-2.3.49,3.22Z"/><path class="cls-10" d="M121,95.7l.45-2.85h-2.7v-2c0-.8.28-1.42,1.52-1.42h1.29V86.82a15.6,15.6,0,0,0-2.25-.23,3.7,3.7,0,0,0-3.95,4v2.27h-2.53V95.7h2.53v7.22a8.54,8.54,0,0,0,3.39,0V95.7Z"/><path class="cls-5" d="M110.62,109.75h-3.44v-6.3a.36.36,0,0,0-.36-.36h-1.26a.35.35,0,0,0-.35.36v7.93h0a.34.34,0,0,0,.09.24h0a.33.33,0,0,0,.25.1h5.06a.35.35,0,0,0,.35-.35V110.1A.35.35,0,0,0,110.62,109.75Zm1.31-6.3a.35.35,0,0,1,.34-.36h1.23a.36.36,0,0,1,.35.36v7.93a.35.35,0,0,1-.35.35h-1.23a.35.35,0,0,1-.34-.35Zm8.9-.36h1.3a.36.36,0,0,1,.36.36v7.93a.36.36,0,0,1-.36.35h-1.51a.38.38,0,0,1-.09-.09l-3.7-4.91v4.71a.36.36,0,0,1-.36.35h-1.3a.36.36,0,0,1-.36-.35v-7.93a.36.36,0,0,1,.36-.36h1.54l0,0h0l0,0,3.7,4.91v-4.71A.36.36,0,0,1,120.83,103.09Zm8.38,1.63a.36.36,0,0,1-.35.36h-3.44v1.34h3.44a.35.35,0,0,1,.35.35v1.28a.36.36,0,0,1-.35.36h-3.44v1.34h3.44a.35.35,0,0,1,.35.35v1.28a.35.35,0,0,1-.35.35H123.8a.37.37,0,0,1-.25-.1h0a.34.34,0,0,1-.09-.24h0v-7.93h0a.37.37,0,0,1,.09-.25h0a.37.37,0,0,1,.25-.1h5.06a.36.36,0,0,1,.35.36Z"/><path class="cls-10" d="M123.88,122.05a9.53,9.53,0,0,1-2.94-.47.82.82,0,0,0-.84.2l-1.31,1.64a12.6,12.6,0,0,1-5.74-5.69l1.62-1.38a.84.84,0,0,0,.2-.85,9.28,9.28,0,0,1-.46-2.94.84.84,0,0,0-.83-.83H110.7c-.45,0-1,.2-1,.83a14.29,14.29,0,0,0,14.17,14.17.88.88,0,0,0,.83-1v-2.88A.83.83,0,0,0,123.88,122.05Z"/><path class="cls-10" d="M117.21,126.73c-2.77,0-3.11,0-4.2.06a7.54,7.54,0,0,0-2.47.48,5.11,5.11,0,0,0-1.81,1.17,5.16,5.16,0,0,0-1.17,1.8,7.58,7.58,0,0,0-.47,2.48c0,1.08-.06,1.43-.06,4.19s0,3.12.06,4.2a7.45,7.45,0,0,0,.47,2.47,5.13,5.13,0,0,0,3,3A7.21,7.21,0,0,0,113,147c1.08.05,1.43.07,4.2.07s3.11,0,4.19-.07a7.32,7.32,0,0,0,2.48-.47,5.15,5.15,0,0,0,3-3,7.43,7.43,0,0,0,.48-2.47c0-1.08.06-1.43.06-4.2s0-3.11-.06-4.19a7.43,7.43,0,0,0-.48-2.47,5.11,5.11,0,0,0-1.17-1.81,4.94,4.94,0,0,0-1.8-1.17,7.55,7.55,0,0,0-2.48-.48c-1.08-.05-1.43-.06-4.2-.06Zm-.92,1.84h.92c2.72,0,3,0,4.11.06a5.51,5.51,0,0,1,1.89.35,3.36,3.36,0,0,1,1.93,1.93,5.51,5.51,0,0,1,.35,1.89c.05,1.07.06,1.39.06,4.11s0,3-.06,4.12a5.51,5.51,0,0,1-.35,1.89,3,3,0,0,1-.76,1.16,3.1,3.1,0,0,1-1.17.77,5.77,5.77,0,0,1-1.89.35c-1.07.05-1.39.06-4.11.06s-3,0-4.12-.06a5.77,5.77,0,0,1-1.89-.35,3.27,3.27,0,0,1-1.17-.77,3.08,3.08,0,0,1-.76-1.17,5.4,5.4,0,0,1-.35-1.89c0-1.07-.06-1.39-.06-4.11s0-3,.06-4.11a5.45,5.45,0,0,1,.35-1.89,3.08,3.08,0,0,1,.76-1.17,3.27,3.27,0,0,1,1.17-.77,5.77,5.77,0,0,1,1.89-.35c.94,0,1.31-.05,3.2-.05Zm6.35,1.69a1.22,1.22,0,1,0,1.22,1.22,1.22,1.22,0,0,0-1.22-1.22Zm-5.43,1.43a5.23,5.23,0,1,0,5.23,5.22,5.23,5.23,0,0,0-5.23-5.22Zm0,1.83a3.4,3.4,0,1,1-3.4,3.39A3.39,3.39,0,0,1,117.21,133.52Z"/><path class="cls-11" d="M133.38,68.53H95.49a4.71,4.71,0,0,0-.74.06,2.24,2.24,0,0,0-.7.24,2.28,2.28,0,0,0-.6.43,2.53,2.53,0,0,0-.43.6,2.5,2.5,0,0,0-.23.7,6.17,6.17,0,0,0-.07.74v9.21a6,6,0,0,0,.07.74A2.46,2.46,0,0,0,93,82a2.29,2.29,0,0,0,.43.59,2.32,2.32,0,0,0,.6.44,2.5,2.5,0,0,0,.7.23,6.37,6.37,0,0,0,.74.07h38.63a6.17,6.17,0,0,0,.74-.07,2.5,2.5,0,0,0,.7-.23,2.32,2.32,0,0,0,.6-.44,2.34,2.34,0,0,0,.66-1.3,4.53,4.53,0,0,0,.07-.74v-.34c0-.13,0-.26,0-.4V72.05c0-.13,0-.27,0-.4v-.34a4.63,4.63,0,0,0-.07-.74,2.22,2.22,0,0,0-.23-.7,2.35,2.35,0,0,0-1-1,2.87,2.87,0,0,0-.7-.23,4.62,4.62,0,0,0-.74-.06h-.74Z"/><path d="M95.84,83H95.5a4,4,0,0,1-.69-.06,1.9,1.9,0,0,1-.61-.2,2.14,2.14,0,0,1-.52-.37,2.13,2.13,0,0,1-.57-1.13,4,4,0,0,1-.06-.69c0-.08,0-.34,0-.34V71.65s0-.25,0-.33a4,4,0,0,1,.06-.69,1.9,1.9,0,0,1,.2-.61,1.76,1.76,0,0,1,.37-.52,2.05,2.05,0,0,1,1.13-.58,4,4,0,0,1,.69-.06h38.61a4,4,0,0,1,.69.06,2.8,2.8,0,0,1,.62.2,2.09,2.09,0,0,1,.89.9,2.43,2.43,0,0,1,.2.61q0,.34.06.69v9.2c0,.23,0,.46-.06.68a2.5,2.5,0,0,1-.2.62,2.12,2.12,0,0,1-.38.51,1.79,1.79,0,0,1-.52.38,1.9,1.9,0,0,1-.61.2,4,4,0,0,1-.69.06H95.84Z"/><path class="cls-3" d="M101.86,76a1.93,1.93,0,0,1,.24-.88,1.9,1.9,0,0,1,.63-.66,2.06,2.06,0,0,0-.64-.57,1.87,1.87,0,0,0-.83-.22c-.62-.07-1.22.37-1.54.37s-.81-.37-1.33-.35a1.91,1.91,0,0,0-1,.28,2,2,0,0,0-.69.72c-.72,1.24-.18,3.06.5,4,.34.49.74,1,1.27,1s.7-.33,1.32-.33.79.33,1.32.32.9-.49,1.23-1a4.32,4.32,0,0,0,.56-1.14A1.79,1.79,0,0,1,101.86,76Z"/><path class="cls-3" d="M100.85,73a1.78,1.78,0,0,0,.41-1.29,1.86,1.86,0,0,0-1.18.61,1.68,1.68,0,0,0-.33.58,1.54,1.54,0,0,0-.09.67,1.52,1.52,0,0,0,.66-.15A1.46,1.46,0,0,0,100.85,73Z"/><path class="cls-3" d="M108.33,78.55h-1.74l-.42,1.24h-.74l1.65-4.58h.77l1.66,4.58h-.76ZM106.77,78h1.38l-.68-2h0Z"/><path class="cls-3" d="M113.08,78.12c0,1-.55,1.71-1.39,1.71a1.15,1.15,0,0,1-.61-.14,1.21,1.21,0,0,1-.45-.45h0V80.9h-.69V76.45h.67V77h0a1.27,1.27,0,0,1,.45-.44,1.31,1.31,0,0,1,.61-.15C112.52,76.41,113.08,77.08,113.08,78.12Zm-.7,0c0-.68-.35-1.12-.89-1.12s-.87.45-.87,1.12.35,1.12.87,1.12S112.38,78.8,112.38,78.12Z"/><path class="cls-3" d="M116.76,78.12c0,1-.56,1.71-1.39,1.71a1.15,1.15,0,0,1-.61-.14,1.21,1.21,0,0,1-.45-.45h0V80.9h-.69V76.45h.67V77h0a1.27,1.27,0,0,1,.45-.44,1.31,1.31,0,0,1,.61-.15C116.2,76.41,116.76,77.08,116.76,78.12Zm-.7,0c0-.68-.35-1.12-.89-1.12s-.87.45-.87,1.12.35,1.12.87,1.12.89-.44.89-1.12Z"/><path class="cls-3" d="M119.19,78.51c0,.46.49.76,1.1.76s1-.3,1-.71-.25-.57-.84-.72l-.6-.14c-.84-.2-1.23-.6-1.23-1.24s.69-1.33,1.67-1.33,1.63.54,1.65,1.33h-.69c0-.45-.42-.73-1-.73s-.93.28-.93.69.24.51.83.66l.51.12c.94.22,1.33.6,1.33,1.27,0,.86-.69,1.4-1.77,1.4s-1.71-.53-1.75-1.36Z"/><path class="cls-3" d="M123.49,75.66v.79h.63V77h-.63v1.85c0,.28.12.41.4.41h.23v.54a2.43,2.43,0,0,1-.38,0c-.68,0-.94-.25-.94-.9V77h-.49v-.54h.49v-.79Z"/><path class="cls-3" d="M124.49,78.12a1.59,1.59,0,1,1,1.59,1.71A1.54,1.54,0,0,1,124.49,78.12Zm2.47,0c0-.72-.33-1.15-.88-1.15s-.89.43-.89,1.15.33,1.15.89,1.15.88-.43.88-1.15Z"/><path class="cls-3" d="M128.23,76.45h.65V77h0a.81.81,0,0,1,.29-.45.86.86,0,0,1,.51-.16,1,1,0,0,1,.24,0v.64a1.1,1.1,0,0,0-.31,0,.71.71,0,0,0-.29,0,.85.85,0,0,0-.25.17,1,1,0,0,0-.15.25.77.77,0,0,0,0,.3v2h-.68Z"/><path class="cls-3" d="M133.1,78.81a1.33,1.33,0,0,1-1.44,1,1.52,1.52,0,0,1-1.57-1.69,1.54,1.54,0,0,1,1.54-1.73,1.47,1.47,0,0,1,1.51,1.65v.23h-2.36v0a.92.92,0,0,0,0,.37A1,1,0,0,0,131,79a1,1,0,0,0,.31.21,1,1,0,0,0,.36.06.69.69,0,0,0,.46-.11.73.73,0,0,0,.31-.36Zm-2.32-1h1.67a.7.7,0,0,0,0-.32.88.88,0,0,0-.17-.28A1,1,0,0,0,132,77a1,1,0,0,0-.33-.06.71.71,0,0,0-.32.07.78.78,0,0,0-.46.46.71.71,0,0,0-.07.32Z"/><path class="cls-3" d="M106.68,71.76a1,1,0,0,1,.42.06.88.88,0,0,1,.36.24,1.17,1.17,0,0,1-.78,1.9h-.79v-2.2Zm-.45,1.89h.41a.81.81,0,0,0,.31-.05.72.72,0,0,0,.25-.18.66.66,0,0,0,.17-.56.65.65,0,0,0,0-.31.76.76,0,0,0-.15-.26.62.62,0,0,0-.25-.17.6.6,0,0,0-.3-.05h-.41Z"/><path class="cls-3" d="M108.11,73.13a.74.74,0,0,1,0-.33.81.81,0,0,1,.17-.28.83.83,0,0,1,.26-.19.77.77,0,0,1,.64,0,.83.83,0,0,1,.26.19.81.81,0,0,1,.17.28.93.93,0,0,1,0,.33.85.85,0,0,1,0,.32.73.73,0,0,1-.17.28.7.7,0,0,1-.26.19.77.77,0,0,1-.64,0,.7.7,0,0,1-.26-.19.73.73,0,0,1-.17-.28A.69.69,0,0,1,108.11,73.13Zm1.23,0c0-.36-.17-.57-.45-.57s-.45.21-.45.57.16.57.45.57.45-.21.45-.57Z"/><path class="cls-3" d="M111.76,74h-.34l-.35-1.23h0L110.71,74h-.34l-.46-1.66h.33l.3,1.27h0l.34-1.27h.31l.34,1.27h0l.3-1.27h.32Z"/><path class="cls-3" d="M112.6,72.3h.32v.26h0a.55.55,0,0,1,.2-.23.6.6,0,0,1,.3-.07.59.59,0,0,1,.23,0,.48.48,0,0,1,.2.14.41.41,0,0,1,.12.2.49.49,0,0,1,0,.24V74h-.33V73c0-.27-.11-.4-.36-.4a.3.3,0,0,0-.16,0,.38.38,0,0,0-.13.09.29.29,0,0,0-.08.14.33.33,0,0,0,0,.17v1h-.33Z"/><path class="cls-3" d="M114.53,71.65h.33V74h-.33Z"/><path class="cls-3" d="M115.32,73.13a.93.93,0,0,1,0-.33,1,1,0,0,1,.17-.28.83.83,0,0,1,.26-.19.77.77,0,0,1,.64,0,.83.83,0,0,1,.26.19.81.81,0,0,1,.17.28.93.93,0,0,1,0,.33.85.85,0,0,1,0,.32.71.71,0,0,1-.16.28.83.83,0,0,1-.27.19.77.77,0,0,1-.64,0,.7.7,0,0,1-.26-.19.73.73,0,0,1-.17-.28A.85.85,0,0,1,115.32,73.13Zm1.23,0c0-.36-.16-.57-.45-.57s-.44.21-.44.57.16.57.44.57.45-.21.45-.57Z"/><path class="cls-3" d="M117.23,73.49c0-.3.22-.47.62-.5l.45,0v-.15c0-.17-.12-.27-.34-.27a.34.34,0,0,0-.35.18h-.31c0-.28.3-.47.67-.47s.66.21.66.56V74h-.32v-.23h0a.57.57,0,0,1-.22.19.58.58,0,0,1-.28.07.51.51,0,0,1-.21,0,.4.4,0,0,1-.18-.1.41.41,0,0,1-.12-.17A.46.46,0,0,1,117.23,73.49Zm1.07-.14v-.14l-.41,0q-.33,0-.33.24c0,.15.13.24.31.24a.31.31,0,0,0,.16,0,.33.33,0,0,0,.13-.07.38.38,0,0,0,.1-.12A.42.42,0,0,0,118.3,73.35Z"/><path class="cls-3" d="M119.06,73.13c0-.53.27-.86.69-.86a.53.53,0,0,1,.3.07.56.56,0,0,1,.21.22h0v-.91h.33V74h-.31V73.7h0a.56.56,0,0,1-.22.21.54.54,0,0,1-.3.08C119.33,74,119.06,73.65,119.06,73.13Zm.34,0c0,.35.16.56.44.56s.45-.21.45-.56-.17-.57-.45-.57-.44.22-.44.57Z"/><path class="cls-3" d="M122,73.13a.93.93,0,0,1,0-.33,1,1,0,0,1,.17-.28.83.83,0,0,1,.26-.19.77.77,0,0,1,.64,0,.83.83,0,0,1,.26.19.81.81,0,0,1,.17.28.93.93,0,0,1,0,.33.85.85,0,0,1,0,.32.71.71,0,0,1-.16.28.83.83,0,0,1-.27.19.77.77,0,0,1-.64,0,.7.7,0,0,1-.26-.19.73.73,0,0,1-.17-.28A.85.85,0,0,1,122,73.13Zm1.23,0c0-.36-.16-.57-.45-.57s-.44.21-.44.57.16.57.44.57S123.2,73.49,123.2,73.13Z"/><path class="cls-3" d="M124,72.3h.31v.26h0a.55.55,0,0,1,.2-.23.59.59,0,0,1,.29-.07.67.67,0,0,1,.24,0,.56.56,0,0,1,.2.14.51.51,0,0,1,.12.2.65.65,0,0,1,0,.24V74h-.33V73c0-.27-.12-.4-.36-.4a.3.3,0,0,0-.16,0,.3.3,0,0,0-.13.09.42.42,0,0,0-.09.14.5.5,0,0,0,0,.17v1H124Z"/><path class="cls-3" d="M127.24,71.88v.42h.36v.28h-.36v.86c0,.17.07.25.24.25h.12V74l-.18,0c-.36,0-.51-.13-.51-.45v-.94h-.26V72.3h.26v-.42Z"/><path class="cls-3" d="M128.05,71.65h.33v.91h0a.58.58,0,0,1,.21-.23.51.51,0,0,1,.3-.06.45.45,0,0,1,.23,0,.46.46,0,0,1,.2.13.55.55,0,0,1,.12.21.63.63,0,0,1,0,.24V74h-.33V73c0-.27-.12-.4-.35-.4a.32.32,0,0,0-.17,0,.39.39,0,0,0-.23.23.33.33,0,0,0,0,.17v1h-.33Z"/><path class="cls-3" d="M131.39,73.51a.67.67,0,0,1-.27.37.65.65,0,0,1-.45.11.91.91,0,0,1-.32-.06.7.7,0,0,1-.26-.19.78.78,0,0,1-.16-.28.74.74,0,0,1,0-.33.69.69,0,0,1,0-.32.76.76,0,0,1,.42-.48.88.88,0,0,1,.32-.07c.46,0,.74.32.74.84v.12h-1.17v0a.37.37,0,0,0,0,.18.36.36,0,0,0,.1.15.49.49,0,0,0,.14.11.57.57,0,0,0,.18,0,.37.37,0,0,0,.23,0,.37.37,0,0,0,.17-.16ZM130.24,73h.84a.44.44,0,0,0,0-.16.42.42,0,0,0-.09-.14.71.71,0,0,0-.14-.1.41.41,0,0,0-.16,0,.35.35,0,0,0-.17,0,.39.39,0,0,0-.23.23.45.45,0,0,0,0,.16Z"/><path class="cls-12" d="M184.89,83.3H138.74a1.84,1.84,0,0,1-1.84-1.85V70.38a1.84,1.84,0,0,1,1.84-1.85h46.15a1.85,1.85,0,0,1,1.85,1.85V81.45A1.85,1.85,0,0,1,184.89,83.3Z"/><path class="cls-13" d="M184.89,68.83a1.56,1.56,0,0,1,1.55,1.55V81.45A1.55,1.55,0,0,1,185.31,83H139.16c-1.27,0-2-.69-2-1.55V70.38a1.55,1.55,0,0,1,1.55-1.55Zm0-.3H138.74a1.85,1.85,0,0,0-1.84,1.85V81.45a1.84,1.84,0,0,0,1.84,1.85h46.15a1.85,1.85,0,0,0,1.85-1.85V70.38A1.86,1.86,0,0,0,184.89,68.53Z"/><path class="cls-3" d="M163.15,73.42a1.11,1.11,0,0,1-.83-.35,1.16,1.16,0,0,1-.34-.85,1.12,1.12,0,0,1,.34-.84,1.11,1.11,0,0,1,.83-.35,1.15,1.15,0,0,1,.84.35,1.19,1.19,0,0,1,.33.84,1.16,1.16,0,0,1-.33.85A1.15,1.15,0,0,1,163.15,73.42Zm-9.9,0a1.2,1.2,0,1,1,0-2.39,1.1,1.1,0,0,1,.47.1.92.92,0,0,1,.35.26l0,0-.25.25,0,0a.7.7,0,0,0-.58-.25.81.81,0,0,0-.57.23.84.84,0,0,0-.24.62.82.82,0,0,0,.24.61.85.85,0,0,0,1.16,0,.59.59,0,0,0,.17-.39h-.79v-.34h1.14v0a1.11,1.11,0,0,1,0,.17,1,1,0,0,1-.29.77A1.11,1.11,0,0,1,153.25,73.42Zm13.17,0h-.36L165,71.64v1.73h-.35V71.08h.4v0l1,1.63V71.08h.36Zm-5.91,0h-.35v-2h-.62v-.34h1.59v.34h-.62v2Zm-1.26,0h-.35V71.08h.35Zm-2,0h-.36v-2h-.62v-.34h1.59v.34h-.61Zm-1.2,0H154.7V71.08h1.36v.34h-1v.63H156v.34h-.91V73h1Zm6.52-.54a.78.78,0,0,0,.57.24.75.75,0,0,0,.58-.24.91.91,0,0,0,0-1.21.8.8,0,0,0-.58-.24.71.71,0,0,0-.57.24.88.88,0,0,0,0,1.21Z"/><path class="cls-14" d="M162,76.56a1.58,1.58,0,1,0,1.56,1.58A1.54,1.54,0,0,0,162,76.56Zm0,2.52a1,1,0,1,1,.88-1A.91.91,0,0,1,162,79.08Zm-3.43-2.52a1.58,1.58,0,1,0,1.57,1.58A1.55,1.55,0,0,0,158.52,76.56Zm0,2.52a1,1,0,1,1,.88-1A.91.91,0,0,1,158.52,79.08Zm-4.07-2v.67H156a1.42,1.42,0,0,1-.36.84,1.63,1.63,0,0,1-1.23.48,1.77,1.77,0,0,1,0-3.54,1.68,1.68,0,0,1,1.2.48l.47-.48a2.31,2.31,0,0,0-1.66-.67,2.44,2.44,0,1,0,0,4.87,2.16,2.16,0,0,0,2.27-2.24,1.73,1.73,0,0,0,0-.41Zm16.66.52a1.46,1.46,0,0,0-1.34-1,1.49,1.49,0,0,0-1.48,1.57,1.54,1.54,0,0,0,1.56,1.57,1.57,1.57,0,0,0,1.3-.69l-.53-.36a.89.89,0,0,1-.77.43.8.8,0,0,1-.76-.47l2.09-.87Zm-2.13.53a.86.86,0,0,1,.81-.92.6.6,0,0,1,.58.33Zm-1.7,1.52H168V75h-.68Zm-1.13-2.7h0a1.07,1.07,0,0,0-.82-.35,1.57,1.57,0,0,0,0,3.14,1.06,1.06,0,0,0,.82-.36h0v.23c0,.6-.32.92-.83.92a.86.86,0,0,1-.79-.56l-.6.25a1.49,1.49,0,0,0,1.39.93,1.43,1.43,0,0,0,1.48-1.64V76.65h-.65v.26Zm-.79,2.17a.89.89,0,0,1-.87-.94.91.91,0,0,1,.87-1,.88.88,0,0,1,.83,1A.86.86,0,0,1,165.36,79.08Zm9-4.09h-1.64v4.62h.69V77.86h1a1.44,1.44,0,1,0,0-2.87Zm0,2.23h-1V75.63h1a.8.8,0,1,1,0,1.59Zm4.25-.66a1.3,1.3,0,0,0-1.23.7l.61.26a.64.64,0,0,1,.62-.34.67.67,0,0,1,.73.59v0a1.59,1.59,0,0,0-.72-.18c-.66,0-1.32.36-1.32,1a1.07,1.07,0,0,0,1.14,1,1,1,0,0,0,.87-.45h0v.35H180V77.84A1.26,1.26,0,0,0,178.59,76.56Zm-.09,2.52c-.23,0-.54-.11-.54-.39s.39-.49.73-.49a1.18,1.18,0,0,1,.62.15A.82.82,0,0,1,178.5,79.08Zm3.89-2.43-.79,2h0l-.82-2H180l1.23,2.8-.7,1.56h.72l1.88-4.36Zm-6.18,3h.69V75h-.69Z"/><path class="cls-15" d="M140.73,71.31a.82.82,0,0,0-.17.53V80a.74.74,0,0,0,.18.52l0,0L145.32,76v-.11l-4.56-4.57Z"/><path class="cls-16" d="M146.83,77.5,145.32,76v-.11l1.51-1.52,0,0,1.79,1a.56.56,0,0,1,0,1.07l-1.79,1Z"/><path class="cls-17" d="M146.87,77.48l-1.55-1.56-4.59,4.6a.6.6,0,0,0,.77,0Z"/><path class="cls-18" d="M146.87,74.36l-5.37-3.07a.6.6,0,0,0-.77,0l4.59,4.6Z"/><path class="cls-19" d="M146.83,77.44l-5.33,3a.61.61,0,0,1-.74,0l0,0,0,0a.61.61,0,0,0,.74,0l5.37-3.06Z"/><path class="cls-20" d="M148.66,76.4l-1.83,1,0,0,1.8-1a.64.64,0,0,0,.38-.53A.65.65,0,0,1,148.66,76.4Z"/><path class="cls-21" d="M141.5,71.35l7.16,4.09a.66.66,0,0,1,.39.48.65.65,0,0,0-.39-.54l-7.16-4.09c-.52-.29-.94,0-.94.55v0C140.56,71.3,141,71.06,141.5,71.35Z"/><circle class="cls-22" cx="591.79" cy="10" r="10"/><path class="cls-23" d="M601.79,10a10,10,0,0,1-10,10V16.73l6.37-7.41-6.37-6.05,5.71,2.3"/><path class="cls-3" d="M591.79,3.27c-3.9,0-7.17,2.5-7.17,5.75,0,2.91,2.59,5.23,6,5.68h0c.09,0,.19.09.25.12l0,0s0,.22-.06.34-.14.48-.14.56h0a1,1,0,0,0,.15.67.81.81,0,0,0,.54.3,1.39,1.39,0,0,0,.59-.12,17.35,17.35,0,0,0,2.47-1.47,17.24,17.24,0,0,0,3-2.47A5.25,5.25,0,0,0,599,9.07C599,5.82,595.69,3.27,591.79,3.27Zm-3.14,7.84h-1.34a.91.91,0,0,1-.67-.67V7.75a.45.45,0,1,1,.89,0v2.47h1.12a.45.45,0,1,1,0,.89Zm1.57-.67a.45.45,0,0,1-.45.45.45.45,0,0,1-.45-.45V7.75a.46.46,0,0,1,.45-.45.45.45,0,0,1,.45.45Zm3.14,0a.45.45,0,0,1-.82.26l-1-1.55v1.29a.45.45,0,0,1-.45.45.45.45,0,0,1-.45-.45V7.75c0-.27.33-.44.55-.45a.37.37,0,0,1,.32.19l.92,1.61V7.75a.45.45,0,0,1,.9,0v2.69Zm2.46-1.57a.45.45,0,0,1,0,.9H594.7v.45h1.12a.45.45,0,1,1,0,.89h-1.34a.93.93,0,0,1-.68-.67V7.75c0-.25.43-.22.68-.22h1.34a.45.45,0,1,1,0,.89H594.7v.45Z"/><path class="cls-24" d="M587.2,20.34l4.59,4.58,4.59-4.58,1.41,1.41-6,6-6-6Z"/></svg>