<svg width="136" height="40" viewBox="0 0 136 40" fill="none" xmlns="http://www.w3.org/2000/svg">
<path d="M20.9995 11H12V29H20.9995C23.3865 29 25.6757 28.0518 27.3635 26.364C29.0513 24.6761 29.9995 22.387 29.9995 20C29.9995 17.613 29.0513 15.3239 27.3635 13.636C25.6757 11.9482 23.3865 11 20.9995 11ZM24.6377 23.6396C24.1661 24.1254 23.5999 24.5094 22.9742 24.7679C22.3485 25.0265 21.6765 25.1543 20.9995 25.1432H15.8549V14.8577H20.9976C22.015 14.8581 23.0095 15.16 23.8554 15.7253C24.7013 16.2907 25.3606 17.0941 25.75 18.0341C26.1393 18.9741 26.2413 20.0084 26.043 21.0063C25.8447 22.0042 25.355 22.9209 24.6358 23.6406L24.6377 23.6396Z" fill="#EB2227"/>
<path fill-rule="evenodd" clip-rule="evenodd" d="M33.2306 29C30.3507 33.2255 25.4993 36 20 36C11.1634 36 4 28.8366 4 20C4 11.1634 11.1634 4 20 4C25.4993 4 30.3507 6.77446 33.2306 11H37.8654C34.5718 4.47484 27.8085 0 20 0C8.9543 0 0 8.9543 0 20C0 31.0457 8.9543 40 20 40C27.8085 40 34.5718 35.5252 37.8654 29H33.2306Z" fill="#EB2227"/>
<path d="M36.641 16.193C37.033 15.647 37.558 15.234 38.216 14.954C38.888 14.674 39.658 14.534 40.526 14.534V17.558C40.162 17.53 39.917 17.516 39.791 17.516C38.853 17.516 38.118 17.782 37.586 18.314C37.054 18.832 36.788 19.616 36.788 20.666V26H33.512V14.702H36.641V16.193ZM42.4739 14.702H45.7499V26H42.4739V14.702ZM44.1119 13.127C43.5099 13.127 43.0199 12.952 42.6419 12.602C42.2639 12.252 42.0749 11.818 42.0749 11.3C42.0749 10.782 42.2639 10.348 42.6419 9.99799C43.0199 9.64799 43.5099 9.47299 44.1119 9.47299C44.7139 9.47299 45.2039 9.64099 45.5819 9.97699C45.9599 10.313 46.1489 10.733 46.1489 11.237C46.1489 11.783 45.9599 12.238 45.5819 12.602C45.2039 12.952 44.7139 13.127 44.1119 13.127ZM60.0043 14.702L55.2373 26H51.8563L47.1103 14.702H50.4913L53.6203 22.388L56.8543 14.702H60.0043ZM72.1005 20.393C72.1005 20.435 72.0795 20.729 72.0375 21.275H63.4905C63.6445 21.975 64.0085 22.528 64.5825 22.934C65.1565 23.34 65.8705 23.543 66.7245 23.543C67.3125 23.543 67.8305 23.459 68.2785 23.291C68.7405 23.109 69.1675 22.829 69.5595 22.451L71.3025 24.341C70.2385 25.559 68.6845 26.168 66.6405 26.168C65.3665 26.168 64.2395 25.923 63.2595 25.433C62.2795 24.929 61.5235 24.236 60.9915 23.354C60.4595 22.472 60.1935 21.471 60.1935 20.351C60.1935 19.245 60.4525 18.251 60.9705 17.369C61.5025 16.473 62.2235 15.78 63.1335 15.29C64.0575 14.786 65.0865 14.534 66.2205 14.534C67.3265 14.534 68.3275 14.772 69.2235 15.248C70.1195 15.724 70.8195 16.41 71.3235 17.306C71.8415 18.188 72.1005 19.217 72.1005 20.393ZM66.2415 17.012C65.4995 17.012 64.8765 17.222 64.3725 17.642C63.8685 18.062 63.5605 18.636 63.4485 19.364H69.0135C68.9015 18.65 68.5935 18.083 68.0895 17.663C67.5855 17.229 66.9695 17.012 66.2415 17.012ZM88.7505 14.534C90.1645 14.534 91.2845 14.954 92.1105 15.794C92.9505 16.62 93.3705 17.866 93.3705 19.532V26H90.0945V20.036C90.0945 19.14 89.9055 18.475 89.5275 18.041C89.1635 17.593 88.6385 17.369 87.9525 17.369C87.1825 17.369 86.5735 17.621 86.1255 18.125C85.6775 18.615 85.4535 19.35 85.4535 20.33V26H82.1775V20.036C82.1775 18.258 81.4635 17.369 80.0355 17.369C79.2795 17.369 78.6775 17.621 78.2295 18.125C77.7815 18.615 77.5575 19.35 77.5575 20.33V26H74.2815V14.702H77.4105V16.004C77.8305 15.528 78.3415 15.164 78.9435 14.912C79.5595 14.66 80.2315 14.534 80.9595 14.534C81.7575 14.534 82.4785 14.695 83.1225 15.017C83.7665 15.325 84.2845 15.78 84.6765 16.382C85.1385 15.794 85.7195 15.339 86.4195 15.017C87.1335 14.695 87.9105 14.534 88.7505 14.534ZM100.864 14.534C102.614 14.534 103.958 14.954 104.896 15.794C105.834 16.62 106.303 17.873 106.303 19.553V26H103.237V24.593C102.621 25.643 101.473 26.168 99.7929 26.168C98.9249 26.168 98.1689 26.021 97.5249 25.727C96.8949 25.433 96.4119 25.027 96.0759 24.509C95.7399 23.991 95.5719 23.403 95.5719 22.745C95.5719 21.695 95.9639 20.869 96.7479 20.267C97.5459 19.665 98.7709 19.364 100.423 19.364H103.027C103.027 18.65 102.81 18.104 102.376 17.726C101.942 17.334 101.291 17.138 100.423 17.138C99.8209 17.138 99.2259 17.236 98.6379 17.432C98.0639 17.614 97.5739 17.866 97.1679 18.188L95.9919 15.899C96.6079 15.465 97.3429 15.129 98.1969 14.891C99.0649 14.653 99.9539 14.534 100.864 14.534ZM100.612 23.963C101.172 23.963 101.669 23.837 102.103 23.585C102.537 23.319 102.845 22.934 103.027 22.43V21.275H100.78C99.4359 21.275 98.7639 21.716 98.7639 22.598C98.7639 23.018 98.9249 23.354 99.2469 23.606C99.5829 23.844 100.038 23.963 100.612 23.963ZM116.555 25.454C116.233 25.692 115.834 25.874 115.358 26C114.896 26.112 114.406 26.168 113.888 26.168C112.544 26.168 111.501 25.825 110.759 25.139C110.031 24.453 109.667 23.445 109.667 22.115V17.474H107.924V14.954H109.667V12.203H112.943V14.954H115.757V17.474H112.943V22.073C112.943 22.549 113.062 22.92 113.3 23.186C113.552 23.438 113.902 23.564 114.35 23.564C114.868 23.564 115.309 23.424 115.673 23.144L116.555 25.454ZM129.112 20.393C129.112 20.435 129.091 20.729 129.049 21.275H120.502C120.656 21.975 121.02 22.528 121.594 22.934C122.168 23.34 122.882 23.543 123.736 23.543C124.324 23.543 124.842 23.459 125.29 23.291C125.752 23.109 126.179 22.829 126.571 22.451L128.314 24.341C127.25 25.559 125.696 26.168 123.652 26.168C122.378 26.168 121.251 25.923 120.271 25.433C119.291 24.929 118.535 24.236 118.003 23.354C117.471 22.472 117.205 21.471 117.205 20.351C117.205 19.245 117.464 18.251 117.982 17.369C118.514 16.473 119.235 15.78 120.145 15.29C121.069 14.786 122.098 14.534 123.232 14.534C124.338 14.534 125.339 14.772 126.235 15.248C127.131 15.724 127.831 16.41 128.335 17.306C128.853 18.188 129.112 19.217 129.112 20.393ZM123.253 17.012C122.511 17.012 121.888 17.222 121.384 17.642C120.88 18.062 120.572 18.636 120.46 19.364H126.025C125.913 18.65 125.605 18.083 125.101 17.663C124.597 17.229 123.981 17.012 123.253 17.012Z" fill="#333333"/>
</svg>
