<svg width="70" height="70" viewBox="0 0 70 70" fill="none" xmlns="http://www.w3.org/2000/svg">
<circle cx="35" cy="35" r="35" fill="#EB2227"/>
<path d="M44.6221 41.8693C37.9647 41.7915 31.355 41.7106 24.6944 41.6328C24.9079 40.2512 24.5669 39.0657 23.5535 38.1042C22.8651 37.4508 22.0238 37.1023 21.0677 37.0649C18.8241 36.9778 17.3868 38.3656 16.9661 41.0541C16.5741 41.0074 16.1758 40.9732 15.787 40.9016C15.685 40.8829 15.5671 40.7678 15.5257 40.6713C14.8118 39.0128 14.7289 37.3979 15.8826 35.8731C15.94 35.7954 15.9941 35.702 16.0069 35.6118C16.2172 34.1493 16.947 32.9171 17.9222 31.8498C18.8273 30.854 19.8567 29.9672 20.8446 29.0431C20.9689 28.9248 21.1665 28.847 21.3418 28.819C25.9118 28.1127 30.4977 27.7486 35.1219 28.1967C37.6077 28.4363 39.931 29.1862 42.1523 30.2628C43.2231 30.7794 44.3225 31.2554 45.3455 31.8529C46.461 32.5032 47.707 32.721 48.9117 33.0851C51.0182 33.7199 53.0993 34.42 55.0082 35.5246C55.2281 35.6522 55.3939 35.8794 55.5659 36.0754C55.6138 36.1314 55.6424 36.2683 55.6074 36.315C55.2982 36.7289 55.6552 37.0369 55.7731 37.3761C56.0982 38.2878 56.0217 39.1995 55.8432 40.1237C55.8018 40.3353 55.8368 40.5842 55.9165 40.7865C56.0918 41.2314 56.0057 41.4741 55.5181 41.5457C54.3995 41.7137 53.2746 41.8444 52.0827 42C52.4173 40.4908 52.1591 39.2026 51.0756 38.1509C50.3139 37.4103 49.3802 37.0431 48.3062 37.0649C47.0473 37.0898 46.0243 37.6095 45.2659 38.5896C44.5169 39.5573 44.3576 40.6589 44.6221 41.8693ZM32.4067 29.3293C32.7063 30.7794 32.9867 32.1796 33.2958 33.5767C33.3182 33.6825 33.5253 33.8132 33.656 33.8257C36.5114 34.0902 39.3637 34.3422 42.2224 34.5849C42.9394 34.644 43.6597 34.6783 44.3799 34.6783C45.0014 34.6783 45.2436 34.2271 44.8834 33.7386C44.6699 33.4461 44.399 33.166 44.0931 32.9762C41.5818 31.4141 38.8952 30.2566 35.9697 29.6654C34.7841 29.4258 33.5859 29.2764 32.4067 29.3293ZM30.8547 33.6016C30.6188 32.108 30.3958 30.6985 30.1727 29.2858C30.0388 29.2764 29.9687 29.2609 29.8986 29.2671C28.4199 29.3667 26.9412 29.46 25.4656 29.5783C24.892 29.6249 24.3215 29.709 23.7574 29.8054C23.1838 29.905 23.0021 30.157 23.1583 30.6891C23.3654 31.3892 23.6108 32.08 23.869 32.7646C23.9104 32.8766 24.108 32.9886 24.2418 33.0042C25.37 33.1256 26.5045 33.2282 27.6359 33.3278C28.6621 33.418 29.6915 33.5021 30.8547 33.6016Z" fill="white"/>
<path d="M48.4705 44.9998C46.6184 44.9799 44.9643 43.2979 45.0006 41.4704C45.0369 39.59 46.7075 37.9674 48.5795 38.0005C50.402 38.0302 52.0131 39.6991 51.9999 41.5332C51.9834 43.3871 50.3194 45.0229 48.4705 44.9998ZM48.5003 43.8332C49.8539 43.8398 50.8114 42.8947 50.8312 41.5365C50.8477 40.1584 49.8935 39.1736 48.5267 39.167C47.1565 39.1571 46.1759 40.1221 46.166 41.4869C46.1594 42.855 47.1268 43.8299 48.5003 43.8332Z" fill="white"/>
<path d="M20.9731 45C19.3874 44.9934 17.9944 43.3417 18 41.4753C18.0028 39.6287 19.4327 37.9836 21.0184 38.0001C22.6012 38.0166 24.0141 39.6881 23.9999 41.5281C23.9829 43.3813 22.5672 45.0066 20.9731 45ZM19.0024 41.5083C19.008 42.8891 19.8291 43.8372 21.0127 43.8306C22.1821 43.824 23.0117 42.8396 22.9976 41.4687C22.9834 40.1044 22.1396 39.153 20.9589 39.1662C19.8065 39.1827 18.9967 40.1506 19.0024 41.5083Z" fill="white"/>
</svg>
