<svg width="70" height="70" viewBox="0 0 70 70" fill="none" xmlns="http://www.w3.org/2000/svg">
<circle cx="35" cy="35" r="35" fill="#EB2227"/>
<path d="M20 22.5614C20.0498 22.3258 20.0809 22.0835 20.1556 21.8546C20.6815 20.2551 21.721 19.2928 23.2988 19.0206C23.4575 18.9941 23.6193 19.0007 23.7811 19.0007C28.7075 19.0007 33.6369 19.0007 38.5633 19.0007C38.6255 19.0007 38.6878 19.0007 38.7624 19.0007C38.7624 19.6146 38.7624 20.2186 38.7624 20.8391C38.694 20.8391 38.6286 20.8391 38.5602 20.8391C33.6058 20.8391 28.6546 20.8391 23.7002 20.8391C22.723 20.8391 21.9419 21.5227 21.7583 22.5415C21.7334 22.6875 21.7272 22.8368 21.7272 22.9861C21.7272 30.9901 21.7241 38.9907 21.7272 46.9947C21.7272 48.2623 22.5519 49.145 23.7438 49.145C31.3216 49.145 38.8994 49.145 46.4772 49.145C47.5041 49.145 48.2822 48.4681 48.4595 47.4195C48.4876 47.2569 48.4844 47.0876 48.4844 46.925C48.4844 41.6886 48.4844 36.4488 48.4844 31.2124C48.4844 31.1361 48.4844 31.0598 48.4844 30.9735C48.9917 30.9735 49.4834 30.9735 50 30.9735C50 31.0299 50 31.0863 50 31.1461C50 36.4455 50 41.7417 50 47.0412C50 48.9791 48.7988 50.5454 47.0373 50.917C46.8444 50.9569 46.6483 50.9735 46.4523 51C38.8185 51 31.1815 51 23.5477 51C23.4917 50.99 23.4357 50.9768 23.3797 50.9735C21.8268 50.8606 20.501 49.6859 20.1183 48.0798C20.0685 47.8741 20.0373 47.6617 20 47.4493C20 39.1533 20 30.8574 20 22.5614Z" fill="white"/>
<path d="M52 23.8149C51.9831 23.875 51.9697 23.9318 51.9562 23.992C51.8719 24.3563 51.6866 24.6604 51.4237 24.921C47.012 29.2922 42.6071 33.6668 38.1887 38.0279C37.8718 38.3387 37.4607 38.566 37.0731 38.7932C34.6937 40.1801 32.2469 41.45 29.7832 42.6832C29.2069 42.9706 28.5497 43.0608 27.8925 42.9605C27.4105 42.887 27.1038 42.5194 27.0263 41.9446C26.9556 41.4132 27.0263 40.9053 27.2521 40.414C28.2261 38.3053 29.1833 36.1899 30.1674 34.0878C30.4876 33.4028 30.8684 32.7444 31.2425 32.086C31.374 31.8555 31.5492 31.6449 31.738 31.4578C36.0553 27.2537 40.3692 23.0529 44.6865 18.8488C45.0741 18.4745 45.5021 18.1704 46.0447 18.0535C46.1324 18.0334 46.2166 18.0167 46.3043 18C46.3615 18 46.4155 18 46.4728 18C46.8907 18.0635 47.2715 18.2105 47.585 18.5013C48.8488 19.6709 50.1126 20.8439 51.3799 22.0169C51.6158 22.2342 51.7708 22.5015 51.8686 22.8023C51.9191 22.9594 51.9562 23.1198 52 23.2802C52 23.4573 52 23.6378 52 23.8149ZM33.0254 32.965C34.2758 34.2048 35.5194 35.4346 36.7361 36.6444C39.6749 33.7303 42.6307 30.8061 45.5931 27.8686C44.363 26.7257 43.1227 25.5727 41.8757 24.4164C38.9166 27.2737 35.9643 30.1244 33.0254 32.965ZM47.0053 26.2578C47.0289 26.2478 47.0423 26.2478 47.0491 26.2411C47.7467 25.5493 48.4477 24.8575 49.142 24.1624C49.2836 24.0187 49.3341 23.8383 49.3139 23.6411C49.2768 23.2802 49.0847 22.9961 48.8353 22.7455C48.1747 22.0871 47.5108 21.4288 46.8469 20.7738C46.3952 20.3293 45.7684 20.3326 45.3201 20.7771C44.6764 21.4121 44.0327 22.0504 43.389 22.6887C43.3553 22.7221 43.3216 22.7588 43.2811 22.8023C44.5281 23.9586 45.7684 25.1082 47.0053 26.2578ZM32.0514 34.8698C32.0312 34.9033 32.0008 34.9434 31.9739 34.9868C31.5593 35.6685 31.1482 36.3503 30.7303 37.032C30.0865 38.0847 29.4833 39.1541 28.9878 40.2837C28.9204 40.4408 28.853 40.6012 28.8058 40.7683C28.7182 41.0824 28.9137 41.2996 29.2271 41.1994C29.5102 41.1091 29.79 40.9755 30.0394 40.8117C31.6032 39.7891 33.1602 38.7531 34.7206 37.7238C34.7645 37.6937 34.8049 37.6603 34.8386 37.6369C33.905 36.7079 32.9816 35.7922 32.0514 34.8698Z" fill="white"/>
</svg>
