<svg xmlns="http://www.w3.org/2000/svg" width="20" height="14" viewBox="0 0 20 14">
    <g fill="none" fill-rule="evenodd">
        <path d="M-2-6h24v24H-2z"/>
        <g fill-rule="nonzero">
            <path fill="#F0F0F0" d="M0 .028h20V13.09H0z"/>
            <g fill="#D80027">
                <path d="M0 2.074h20v1.572H0zM0 5.217h20V6.79H0zM0 8.361h20v1.572H0zM0 11.504h20v1.572H0z"/>
            </g>
            <path fill="#2E52B2" d="M0 .028h10v7.033H0z"/>
            <g fill="#F0F0F0">
                <path d="M3.895 2.892l-.162.505H3.21l.423.313-.161.505.423-.312.423.312-.162-.505.423-.313h-.523zM4.056 5.222l-.161-.506-.162.506H3.21l.423.313-.161.505.423-.312.423.312-.162-.505.423-.313zM1.846 5.222l-.161-.506-.162.506H1l.423.313-.161.505.423-.312.423.312-.162-.505.423-.313zM1.685 2.892l-.162.505H1l.423.313-.161.505.423-.312.423.312-.162-.505.423-.313h-.523zM3.895 1.067l-.162.505H3.21l.423.313-.161.505.423-.312.423.312-.162-.505.423-.313h-.523zM1.685 1.067l-.162.505H1l.423.313-.161.505.423-.312.423.312-.162-.505.423-.313h-.523zM6.105 2.892l-.161.505H5.42l.423.313-.162.505.423-.312.423.312-.161-.505.423-.313h-.523zM6.267 5.222l-.162-.506-.161.506H5.42l.423.313-.162.505.423-.312.423.312-.161-.505.423-.313zM8.477 5.222l-.161-.506-.162.506H7.63l.423.313-.162.505.424-.312.422.312-.161-.505L9 5.222zM8.316 2.892l-.162.505H7.63l.423.313-.162.505.424-.312.422.312-.161-.505L9 3.397h-.523zM6.105 1.067l-.161.505H5.42l.423.313-.162.505.423-.312.423.312-.161-.505.423-.313h-.523zM8.316 1.067l-.162.505H7.63l.423.313-.162.505.424-.312.422.312-.161-.505L9 1.572h-.523z"/>
            </g>
        </g>
    </g>
</svg>
