<svg xmlns="http://www.w3.org/2000/svg" width="20" height="13" viewBox="0 0 20 13">
    <g fill="none" fill-rule="nonzero">
        <path fill="#D80027" d="M19.655 13H.345A.344.344 0 0 1 0 12.658V.342C0 .153.154 0 .345 0h19.31c.19 0 .345.153.345.342v12.316a.344.344 0 0 1-.345.342z"/>
        <g fill="#FFE15A">
            <path d="M3.715 2.189l.313 1.081.991.009c.129.001.182.19.079.277l-.798.677.3 1.087c.038.14-.101.257-.206.171l-.806-.663-.807.663c-.104.086-.243-.03-.205-.17l.3-1.088-.798-.677c-.103-.088-.05-.276.078-.277l.991-.009.314-1.081c.04-.14.213-.14.254 0zM7.314 2.455l.225.353.363-.13c.047-.018.086.044.057.09l-.222.355.22.356c.028.047-.01.108-.058.09l-.362-.133-.227.351c-.029.046-.092.022-.092-.035l-.002-.437-.36-.14c-.047-.018-.046-.094 0-.112l.361-.137.005-.437c0-.056.063-.08.092-.034zM5.945 1.404l.378.047.161-.396c.021-.051.087-.043.097.013l.078.428.377.054c.049.007.062.081.02.11l-.33.217.071.43c.01.055-.048.092-.085.054l-.281-.294-.333.212c-.043.027-.092-.024-.072-.076l.156-.399-.278-.299c-.035-.038-.008-.107.041-.101zM6.543 5.642l-.225.353-.363-.13c-.047-.018-.086.044-.057.09l.222.355-.22.356c-.028.047.01.108.057.09l.363-.133.227.351c.029.046.092.022.092-.035l.002-.437.36-.14c.047-.018.046-.094 0-.112l-.362-.137-.004-.437c0-.056-.063-.08-.092-.034zM7.912 4.654l-.378.047-.162-.396c-.02-.05-.086-.042-.096.013l-.078.428-.377.054c-.05.007-.062.082-.02.11l.33.217-.071.43c-.01.055.048.092.084.054l.282-.293.333.211c.043.027.092-.024.072-.076l-.156-.399.277-.298c.036-.039.009-.108-.04-.102z"/>
        </g>
    </g>
</svg>
